<svg width="355" height="43" viewBox="0 0 355 43" fill="none" xmlns="http://www.w3.org/2000/svg">
<path d="M24.552 1.392C26.76 1.296 30.072 1.248 34.488 1.248C38.904 1.248 41.592 1.28 42.552 1.344C44.728 1.568 46.232 1.824 47.064 2.112C47.448 2.272 47.816 2.512 48.168 2.832C48.52 3.152 48.744 3.44 48.84 3.696C48.904 3.92 48.984 4.848 49.08 6.48C49.208 8.88 49.08 12.256 48.696 16.608C48.312 20.8 48.216 24.24 48.408 26.928C48.664 30.768 48.76 33.36 48.696 34.704C48.664 36.016 48.456 36.864 48.072 37.248C47.688 37.6 47.048 37.808 46.152 37.872C45.256 37.968 43.032 38.016 39.48 38.016C21.656 37.952 11.256 37.904 8.28 37.872C5.336 37.84 3.64 37.728 3.192 37.536C2.68 37.344 2.328 37.152 2.136 36.96C1.912 36.768 1.736 36.464 1.608 36.048C1.416 35.408 1.272 34.384 1.176 32.976C1.08 31.568 0.984 28.832 0.888 24.768C0.792 19.36 0.808 15.552 0.936 13.344C1.064 11.104 1.16 9.008 1.224 7.056C1.288 5.456 1.384 4.416 1.512 3.936C1.608 3.424 1.848 3.024 2.232 2.736C2.712 2.416 3.336 2.208 4.104 2.112C4.872 2.016 6.376 1.968 8.616 1.968C11.336 1.968 14.2 1.888 17.208 1.728C18.744 1.632 21.192 1.52 24.552 1.392ZM42.456 4.368C40.92 4.24 39.464 4.16 38.088 4.128C36.712 4.096 35.992 4.144 35.928 4.272C35.864 4.528 35.768 4.88 35.64 5.328C35.224 6.896 34.152 9.728 32.424 13.824C30.568 18.176 29.368 21.296 28.824 23.184C28.504 24.336 28.232 25.056 28.008 25.344C27.784 25.6 27.352 25.776 26.712 25.872C26.232 25.936 25.848 25.888 25.56 25.728C25.272 25.568 25.064 25.36 24.936 25.104C24.84 24.816 24.632 24.08 24.312 22.896C24.056 21.808 23.72 20.784 23.304 19.824C22.76 18.48 21.992 16.176 21 12.912C20.296 10.544 19.784 8.944 19.464 8.112C19.176 7.248 18.824 6.448 18.408 5.712L17.832 4.608L16.968 4.752C16.424 4.816 14.424 4.864 10.968 4.896C10.136 4.896 9.272 4.912 8.376 4.944C7.512 4.944 6.84 4.944 6.36 4.944H5.64C5.48 4.976 5.4 5.264 5.4 5.808V6.624L6.888 6.576C7.88 6.576 8.552 6.688 8.904 6.912C9.256 7.104 9.496 7.344 9.624 7.632C9.816 8.048 10.04 10.432 10.296 14.784C10.584 19.104 10.728 22.784 10.728 25.824C10.728 28.992 10.648 30.832 10.488 31.344C10.232 32.208 9.752 32.816 9.048 33.168C8.824 33.264 8.328 33.392 7.56 33.552C6.792 33.68 6.216 33.744 5.832 33.744C5.544 33.744 5.368 33.776 5.304 33.84C5.272 33.872 5.288 34 5.352 34.224C5.384 34.544 5.432 34.736 5.496 34.8C5.56 34.864 7.368 34.896 10.92 34.896C14.504 34.864 16.856 34.816 17.976 34.752L19.8 34.656L19.464 33.936L19.128 33.264L18.024 33.216C17.384 33.216 16.76 33.12 16.152 32.928C15.576 32.736 15.16 32.496 14.904 32.208C14.552 31.824 14.328 31.312 14.232 30.672C14.168 30 14.216 29.008 14.376 27.696C14.536 26.352 14.584 24.592 14.52 22.416C14.424 19.184 14.088 16.288 13.512 13.728C13.224 12.48 13.08 11.696 13.08 11.376C13.08 11.056 13.224 10.768 13.512 10.512C13.832 10.224 14.168 10.08 14.52 10.08C14.936 10.08 15.272 10.24 15.528 10.56C15.784 10.88 16.04 11.44 16.296 12.24C16.904 14.288 18.36 18.512 20.664 24.912C22.392 29.808 23.368 32.592 23.592 33.264L24.12 34.8H25.608C26.568 34.8 27.176 34.832 27.432 34.896C27.592 34.96 27.688 34.976 27.72 34.944C27.752 34.88 27.768 34.736 27.768 34.512C27.8 32.976 28.6 30.496 30.168 27.072C31.064 25.152 31.736 23.2 32.184 21.216C32.504 19.744 32.936 18.176 33.48 16.512C33.96 15.04 34.328 14.128 34.584 13.776C34.84 13.392 35.24 13.2 35.784 13.2C36.264 13.2 36.632 13.344 36.888 13.632C37.144 13.92 37.336 14.336 37.464 14.88C37.624 15.424 37.768 16.368 37.896 17.712C38.248 21.072 38.472 24.176 38.568 27.024C38.664 29.84 38.6 31.488 38.376 31.968C38.152 32.512 37.704 32.896 37.032 33.12C36.392 33.344 35.352 33.488 33.912 33.552C32.888 33.616 32.28 33.696 32.088 33.792C31.928 33.856 31.88 34.112 31.944 34.56C32.008 34.816 32.136 34.976 32.328 35.04C32.552 35.104 34.696 35.136 38.76 35.136C42.824 35.136 45 35.104 45.288 35.04C45.48 34.976 45.608 34.912 45.672 34.848C45.736 34.784 45.768 34.672 45.768 34.512C45.768 34.32 45.72 34.208 45.624 34.176C45.56 34.112 45.368 34.064 45.048 34.032C43.608 33.872 42.728 33.2 42.408 32.016C42.152 31.088 41.944 29.024 41.784 25.824C41.624 22.592 41.56 19.008 41.592 15.072C41.624 12.288 41.656 10.592 41.688 9.984C41.72 9.344 41.816 8.864 41.976 8.544C42.2 8.064 42.488 7.696 42.84 7.44C43.16 7.216 43.592 7.008 44.136 6.816C44.712 6.592 45.176 6.48 45.528 6.48H46.104L46.056 5.664L46.008 4.896L45.096 4.704C44.488 4.576 43.608 4.464 42.456 4.368ZM62.6291 39.264C61.2851 39.424 59.9731 39.376 58.6931 39.12C58.3411 39.024 58.0051 38.928 57.6851 38.832C57.5891 38.832 57.5091 38.832 57.4451 38.832C56.0691 38.672 54.9651 38.512 54.1331 38.352C52.9811 38.096 52.2131 37.808 51.8291 37.488C51.4771 37.168 51.2211 36.672 51.0611 36C50.9331 35.584 50.8371 35.056 50.7731 34.416C50.6451 33.392 50.5651 32.08 50.5331 30.48C50.5331 29.328 50.5331 27.92 50.5331 26.256C50.5331 26.192 50.5491 26.032 50.5811 25.776C50.5811 25.488 50.5811 25.328 50.5811 25.296C50.5811 25.008 50.5811 24.8 50.5811 24.672C50.5811 24.416 50.5811 23.952 50.5811 23.28C50.5491 21.136 50.5651 19.44 50.6291 18.192C50.7891 15.152 51.2531 12.832 52.0211 11.232C52.0531 11.104 52.1011 10.976 52.1651 10.848C52.3571 10.112 52.6611 9.584 53.0771 9.264C53.6531 8.72 54.5971 8.384 55.9091 8.256C56.7411 8.192 57.8131 8.192 59.1251 8.256C59.7651 8.288 60.5171 8.352 61.3811 8.448C61.4451 8.448 61.6851 8.48 62.1011 8.544C62.5491 8.576 62.8211 8.592 62.9171 8.592C63.3971 8.656 63.7331 8.688 63.9251 8.688C66.2611 8.752 68.9171 8.688 71.8931 8.496C71.9891 8.496 72.2451 8.48 72.6611 8.448C73.1091 8.416 73.3651 8.4 73.4291 8.4C74.0051 8.368 74.4851 8.336 74.8691 8.304C75.8611 8.272 76.6771 8.272 77.3171 8.304C79.0771 8.432 80.4051 9.008 81.3011 10.032C82.1331 11.024 82.6931 12.624 82.9811 14.832C83.1731 16.592 83.2691 19.408 83.2691 23.28C83.2691 23.888 83.3491 25.168 83.5091 27.12C83.6051 28.4 83.6691 29.408 83.7011 30.144C83.7651 31.808 83.7491 33.216 83.6531 34.368C83.4931 35.936 83.1411 37.216 82.5971 38.208C82.4051 38.56 82.1491 38.832 81.8291 39.024C81.1251 39.44 79.2051 39.68 76.0691 39.744C73.4131 39.776 70.2931 39.712 66.7091 39.552C65.3011 39.456 63.9411 39.36 62.6291 39.264ZM71.7011 15.504C71.3171 14.992 71.0771 14.672 70.9811 14.544C70.5971 14.064 70.2451 13.664 69.9251 13.344C68.8371 12.768 67.6211 12.368 66.2771 12.144C66.0851 12.112 65.8771 12.08 65.6531 12.048C64.7571 12.08 63.7331 12.096 62.5811 12.096C61.5891 12.224 60.6611 12.448 59.7971 12.768C59.1891 13.152 58.5651 13.696 57.9251 14.4C57.3171 15.072 56.8211 15.776 56.4371 16.512C55.9891 17.408 55.7971 18.176 55.8611 18.816C55.8931 19.424 56.1971 19.92 56.7731 20.304C57.0931 20.496 57.4931 20.624 57.9731 20.688C58.6771 20.752 59.2531 20.752 59.7011 20.688C59.8291 20.656 59.9571 20.624 60.0851 20.592C60.1171 20.592 60.1491 20.576 60.1811 20.544C60.2131 20.544 60.2291 20.528 60.2291 20.496C60.2291 20.464 60.2451 20.416 60.2771 20.352C60.2771 20.16 60.2291 19.888 60.1331 19.536C60.1011 19.376 60.0371 19.152 59.9411 18.864C59.7491 18.224 59.6371 17.776 59.6051 17.52C59.5411 17.232 59.5091 16.976 59.5091 16.752C59.5411 16.336 59.6531 15.984 59.8451 15.696C60.1651 15.12 60.7091 14.704 61.4771 14.448C61.9891 14.256 62.5971 14.144 63.3011 14.112C64.5171 14.048 65.5571 14.176 66.4211 14.496C66.4851 14.528 66.5491 14.544 66.6131 14.544C67.0611 14.608 67.4771 14.704 67.8611 14.832C68.6611 15.088 69.3491 15.616 69.9251 16.416C70.5331 17.28 70.8051 18.112 70.7411 18.912C70.6451 19.776 70.1971 20.48 69.3971 21.024C68.8851 21.376 68.1811 21.68 67.2851 21.936C66.6771 22.128 65.8291 22.336 64.7411 22.56C64.6131 22.592 64.2931 22.656 63.7811 22.752C63.3011 22.848 63.0291 22.896 62.9651 22.896C62.2611 23.056 61.6531 23.184 61.1411 23.28C61.0771 23.312 60.9971 23.344 60.9011 23.376C60.7091 23.44 60.5011 23.488 60.2771 23.52C57.7491 24.192 55.9731 25.04 54.9491 26.064C54.3091 26.736 53.9411 27.536 53.8451 28.464C53.6851 29.648 53.9091 31.04 54.5171 32.64C55.1251 34.272 56.3731 35.392 58.2611 36C59.5411 36.16 60.9811 36.288 62.5811 36.384C63.7971 36.224 64.8851 35.888 65.8451 35.376L65.8931 35.328C65.9251 35.296 65.9891 35.232 66.0851 35.136C66.2131 35.008 66.4211 34.784 66.7091 34.464C67.0931 34.048 67.3651 33.76 67.5251 33.6C67.7171 33.44 67.8771 33.312 68.0051 33.216C68.2931 32.992 68.5811 32.864 68.8691 32.832C69.3491 32.768 69.8291 32.864 70.3091 33.12C70.5651 33.248 70.8531 33.456 71.1731 33.744C71.2371 33.808 71.3331 33.904 71.4611 34.032C71.5891 34.128 71.7171 34.256 71.8451 34.416C71.9731 34.544 72.1011 34.672 72.2291 34.8C72.3571 34.896 72.4531 34.992 72.5171 35.088L72.6611 35.232C73.6531 36.192 74.4691 36.72 75.1091 36.816C75.4611 36.88 75.8291 36.816 76.2131 36.624C76.7571 36.336 77.3491 35.808 77.9891 35.04V34.992V34.944C78.0531 34.752 78.1171 34.496 78.1811 34.176C78.2771 33.472 78.3411 32.56 78.3731 31.44C78.4051 30.128 78.4051 28.592 78.3731 26.832C77.6691 27.056 77.1891 27.216 76.9331 27.312C76.8371 27.344 76.7571 27.376 76.6931 27.408C76.6931 27.536 76.6931 27.744 76.6931 28.032C76.6931 28.064 76.7091 28.176 76.7411 28.368C76.7731 28.816 76.7891 29.248 76.7891 29.664C76.8211 30.048 76.8371 30.432 76.8371 30.816C76.8371 31.2 76.6931 31.536 76.4051 31.824C76.1171 32.112 75.7651 32.256 75.3491 32.256C74.9651 32.256 74.6291 32.112 74.3411 31.824C74.0851 31.536 73.9571 31.2 73.9571 30.816C73.9571 30.4 73.9411 29.952 73.9091 29.472C73.9091 29.44 73.9091 29.392 73.9091 29.328C73.9091 29.232 73.8931 28.944 73.8611 28.464C73.7651 27.376 73.6051 25.552 73.3811 22.992V22.896C73.2211 21.136 73.1091 19.872 73.0451 19.104C72.8851 18.656 72.7411 18.224 72.6131 17.808C72.3251 16.976 72.0211 16.208 71.7011 15.504ZM64.3091 25.152C65.2051 24.768 66.0371 24.512 66.8051 24.384C67.4771 24.256 68.0691 24.256 68.5811 24.384C69.4131 24.544 69.9891 24.96 70.3091 25.632C70.5971 26.272 70.6131 27.008 70.3571 27.84C70.1331 28.512 69.7331 29.264 69.1571 30.096C68.0371 31.728 66.5971 32.736 64.8371 33.12C64.1011 33.248 63.3651 33.264 62.6291 33.168C61.4771 33.104 60.5011 32.848 59.7011 32.4C59.3171 32.144 59.0131 31.872 58.7891 31.584C58.5971 31.296 58.4691 30.992 58.4051 30.672C58.2131 30.384 58.0851 30.08 58.0211 29.76C57.8611 28.992 57.9891 28.288 58.4051 27.648C58.7891 27.072 59.3971 26.64 60.2291 26.352C61.6051 25.808 62.9651 25.408 64.3091 25.152ZM85.7989 1.44C86.3109 1.312 86.8709 1.248 87.4789 1.248C88.0869 1.248 90.3429 1.312 94.2469 1.44C107.239 1.856 114.167 2.32 115.031 2.832C115.351 2.992 115.575 3.264 115.703 3.648C115.831 4.032 115.943 4.688 116.039 5.616C116.167 6.64 116.231 9.216 116.231 13.344C116.231 17.472 116.167 21.024 116.039 24C116.007 24.96 115.959 26.592 115.895 28.896C115.831 31.2 115.783 32.416 115.751 32.544C115.687 34.656 115.607 36.032 115.511 36.672C115.447 37.344 115.287 37.984 115.031 38.592C115.031 38.624 115.015 38.672 114.983 38.736C114.759 39.248 114.375 39.584 113.831 39.744C113.319 39.904 111.607 40.208 108.695 40.656C108.343 40.688 108.071 40.72 107.879 40.752C98.6629 42.096 92.6789 42.704 89.9269 42.576C88.4869 42.512 87.5269 42.288 87.0469 41.904C86.5349 41.52 86.0709 40.624 85.6549 39.216C85.0149 37.2 84.5509 34.08 84.2629 29.856C84.1349 28.256 84.0549 23.472 84.0229 15.504C83.9589 7.504 83.9909 3.312 84.1189 2.928C84.3109 2.16 84.8709 1.664 85.7989 1.44ZM107.207 11.232C107.015 11.104 106.839 11.072 106.679 11.136C106.551 11.168 106.487 11.264 106.487 11.424C106.487 11.936 106.183 12.448 105.575 12.96C105.287 13.216 104.951 13.344 104.567 13.344C104.215 13.344 103.671 13.248 102.935 13.056C100.855 12.448 98.9669 12.144 97.2709 12.144C95.6389 12.144 94.4229 12.4 93.6229 12.912C93.1429 13.2 92.5989 13.84 91.9909 14.832C91.4149 15.792 91.0469 16.672 90.8869 17.472C90.3749 19.872 91.4949 21.76 94.2469 23.136C95.1749 23.616 97.3669 24.384 100.823 25.44C103.191 26.144 104.775 27.008 105.575 28.032C106.407 29.056 106.551 30.336 106.007 31.872C105.143 34.176 103.047 35.104 99.7189 34.656C98.0229 34.432 96.5349 33.952 95.2549 33.216C93.9749 32.448 93.0629 31.504 92.5189 30.384C92.2629 29.872 92.1349 29.008 92.1349 27.792C92.1349 26.896 92.1189 26.368 92.0869 26.208C92.0549 26.048 91.9589 25.968 91.7989 25.968C91.5429 25.968 91.2869 26.112 91.0309 26.4C90.8069 26.656 90.6629 27.008 90.5989 27.456C90.3749 28.576 90.2629 30.144 90.2629 32.16C90.2629 34.176 90.3749 35.536 90.5989 36.24C90.6949 36.528 90.7749 36.688 90.8389 36.72C90.9029 36.784 91.0949 36.8 91.4149 36.768C91.8309 36.736 92.1189 36.656 92.2789 36.528C92.4389 36.432 92.5509 36.224 92.6149 35.904C92.6789 35.552 92.8389 35.232 93.0949 34.944C93.3509 34.656 93.6389 34.48 93.9589 34.416C94.6309 34.288 95.8309 34.624 97.5589 35.424C98.6469 35.936 99.5909 36.224 100.391 36.288C102.311 36.384 104.039 35.936 105.575 34.944C107.143 33.92 108.183 32.544 108.695 30.816C109.111 29.568 109.111 28.528 108.695 27.696C108.343 26.928 107.655 26.272 106.631 25.728C105.607 25.152 103.879 24.464 101.447 23.664C97.9909 22.576 95.7669 21.584 94.7749 20.688C93.8149 19.76 93.6549 18.544 94.2949 17.04C94.6469 16.24 95.4309 15.552 96.6469 14.976C97.8949 14.4 99.2229 14.112 100.631 14.112C101.911 14.112 102.951 14.56 103.751 15.456C104.583 16.32 105.095 17.552 105.287 19.152C105.383 20.144 105.431 20.656 105.431 20.688C105.463 20.688 105.783 20.656 106.391 20.592L107.303 20.496L107.351 15.936C107.383 12.896 107.335 11.328 107.207 11.232ZM132.156 15.408C133.052 15.12 133.9 15.152 134.7 15.504C135.5 15.824 136.124 16.416 136.572 17.28C137.244 17.984 137.74 18.88 138.06 19.968C138.636 21.728 138.748 23.632 138.396 25.68C138.012 27.856 137.196 29.584 135.948 30.864C134.412 32.464 132.524 33.008 130.284 32.496C128.78 32.144 127.708 30.992 127.068 29.04C126.556 27.536 126.38 25.808 126.54 23.856C126.732 21.872 127.212 20.144 127.98 18.672C129.004 16.848 130.332 15.76 131.964 15.408C132.028 15.408 132.092 15.408 132.156 15.408ZM138.972 14.256C137.564 12.784 135.916 11.872 134.028 11.52C131.468 11.04 129.132 11.664 127.02 13.392C124.78 15.216 123.244 17.952 122.412 21.6C122.38 21.92 122.364 22.224 122.364 22.512C122.108 26.224 122.652 29.28 123.996 31.68C125.404 34.24 127.596 35.52 130.572 35.52C132.076 35.52 133.196 35.456 133.932 35.328C135.02 35.168 135.98 34.832 136.812 34.32C138.732 33.168 140.156 31.584 141.084 29.568C141.148 29.408 141.212 29.248 141.276 29.088C141.532 28.416 141.692 27.792 141.756 27.216C141.98 25.68 141.948 23.984 141.66 22.128C141.404 20.272 140.924 18.496 140.22 16.8C139.836 15.904 139.42 15.056 138.972 14.256ZM123.852 1.056C124.396 0.927998 125.036 0.815998 125.772 0.719999C127.98 0.399998 130.844 0.239997 134.364 0.239997H134.412C136.844 0.0799971 138.892 0.0159979 140.556 0.0479994C141.836 0.079999 142.892 0.175999 143.724 0.335999C144.268 0.431999 144.716 0.543999 145.068 0.671997C145.324 0.703999 145.564 0.735999 145.788 0.767999C146.204 0.831998 146.54 0.895998 146.796 0.959999C147.308 1.088 147.692 1.296 147.948 1.584C148.14 1.84 148.284 2.112 148.38 2.4C148.412 2.528 148.428 2.672 148.428 2.832V2.928V2.976V3.024L148.38 3.072C148.38 5.728 148.284 9.376 148.092 14.016C148.06 14.272 148.028 14.672 147.996 15.216C147.836 18.96 147.724 21.76 147.66 23.616C147.66 24.672 147.692 26.272 147.756 28.416C147.756 28.928 147.756 29.328 147.756 29.616C147.852 32.592 147.788 34.976 147.564 36.768C147.564 36.8 147.548 36.88 147.516 37.008V37.056C147.516 37.248 147.5 37.424 147.468 37.584C147.404 37.84 147.34 38.08 147.276 38.304C147.116 38.72 146.892 39.04 146.604 39.264C146.348 39.456 145.964 39.568 145.452 39.6C145.228 39.632 144.908 39.648 144.492 39.648C143.788 39.648 142.828 39.632 141.612 39.6C139.308 39.536 136.476 39.408 133.116 39.216C129.884 39.024 127.084 38.832 124.716 38.64C123.468 38.544 122.508 38.464 121.836 38.4C121.452 38.336 121.148 38.288 120.924 38.256C120.444 38.192 120.092 38.048 119.868 37.824C119.74 37.728 119.628 37.616 119.532 37.488C119.244 37.296 119.02 37.024 118.86 36.672C118.636 36.256 118.444 34.72 118.284 32.064C118.156 30.176 118.028 27.52 117.9 24.096C117.868 23.072 117.82 21.792 117.756 20.256C117.756 20 117.756 19.696 117.756 19.344C117.724 18.896 117.708 18.608 117.708 18.48C117.676 17.776 117.66 17.216 117.66 16.8C117.564 14.4 117.5 12.944 117.468 12.432C117.404 11.632 117.356 10.464 117.324 8.928C117.292 8.768 117.276 8.64 117.276 8.544C117.276 7.52 117.26 6.72 117.228 6.144C117.228 6.112 117.228 6.048 117.228 5.952C117.196 5.856 117.18 5.744 117.18 5.616C117.148 5.488 117.132 5.392 117.132 5.328C117.1 5.008 117.084 4.704 117.084 4.416C117.052 3.84 117.052 3.376 117.084 3.024C117.116 2.736 117.18 2.48 117.276 2.256C117.372 2.032 117.484 1.84 117.612 1.68C117.9 1.424 118.236 1.264 118.62 1.2C120.124 1.04 121.868 0.991999 123.852 1.056ZM157.83 1.2C158.63 1.136 159.958 1.104 161.814 1.104C163.702 1.104 165.27 1.136 166.518 1.2C167.99 1.328 170.55 1.584 174.198 1.968L179.574 2.592L184.662 2.496C189.654 2.4 192.534 2.544 193.302 2.928C194.038 3.312 194.694 4.224 195.27 5.664C196.55 8.8 197.798 13.888 199.014 20.928C199.43 23.296 199.638 25.248 199.638 26.784C199.606 29.12 199.494 31.568 199.302 34.128C199.142 36.656 198.966 38.096 198.774 38.448C198.55 38.896 198.07 39.152 197.334 39.216C196.598 39.28 194.262 39.296 190.326 39.264C169.526 38.976 157.526 38.88 154.326 38.976L150.486 39.12L149.67 38.736C149.126 38.448 148.758 38.192 148.566 37.968C148.246 37.52 148.086 36.672 148.086 35.424C148.086 34.176 148.246 32.096 148.566 29.184C148.662 28.128 148.71 27.136 148.71 26.208C148.71 25.28 148.646 23.12 148.518 19.728C148.358 14.8 148.31 11.2 148.374 8.928C148.406 6.464 148.55 4.848 148.806 4.08C149.03 3.28 149.526 2.688 150.294 2.304C151.062 1.984 152.598 1.712 154.902 1.488C155.766 1.424 156.742 1.328 157.83 1.2ZM157.782 11.616C157.526 11.488 156.886 11.392 155.862 11.328C154.87 11.264 154.278 11.264 154.086 11.328C154.022 11.36 153.718 11.408 153.174 11.472L152.502 11.616L152.55 12.768C152.582 13.568 152.614 13.984 152.646 14.016C152.71 14.048 153.19 14 154.086 13.872C154.982 13.712 155.878 13.648 156.774 13.68C157.67 13.712 158.262 13.824 158.55 14.016C158.934 14.272 159.174 14.608 159.27 15.024C159.398 15.44 159.478 16.304 159.51 17.616C159.574 19.536 159.494 22.112 159.27 25.344C159.046 28.544 158.806 30.704 158.55 31.824C158.422 32.464 158.246 32.944 158.022 33.264C157.67 33.808 157.142 34.16 156.438 34.32C155.766 34.448 155.03 34.368 154.23 34.08L153.414 33.792V34.8V35.808L155.574 35.904C156.918 35.968 158.966 36 161.718 36H165.75L165.654 35.664C165.59 35.44 165.558 35.104 165.558 34.656V33.936L164.502 33.84C163.606 33.744 162.918 33.568 162.438 33.312C161.99 33.024 161.606 32.576 161.286 31.968C161.062 31.52 160.838 31.088 160.614 30.672C160.198 29.84 159.99 28.656 159.99 27.12C159.99 25.52 160.214 23.952 160.662 22.416C161.302 20.336 161.846 18.88 162.294 18.048C162.742 17.216 163.382 16.496 164.214 15.888C165.046 15.28 165.782 14.96 166.422 14.928C167.062 14.864 167.75 15.056 168.486 15.504C168.902 15.76 169.35 16.144 169.83 16.656C170.342 17.168 170.694 17.616 170.886 18C171.622 19.44 172.15 21.568 172.47 24.384C172.598 25.44 172.678 27.024 172.71 29.136C172.774 31.216 172.758 32.336 172.662 32.496C172.502 32.784 172.198 33.056 171.75 33.312C171.302 33.568 170.886 33.696 170.502 33.696C170.406 33.696 170.198 33.712 169.878 33.744C169.558 33.744 169.334 33.744 169.206 33.744H168.534V34.416C168.534 34.832 168.566 35.2 168.63 35.52L168.726 35.952L174.534 36.096C178.374 36.128 180.31 36.128 180.342 36.096C180.374 36.096 180.358 35.696 180.294 34.896C180.262 34.256 180.182 33.888 180.054 33.792C179.958 33.696 179.558 33.584 178.854 33.456C178.342 33.392 177.974 33.28 177.75 33.12C177.558 32.96 177.334 32.656 177.078 32.208C176.918 31.888 176.822 31.504 176.79 31.056C176.758 30.608 176.742 29.328 176.742 27.216C176.742 24.336 176.822 22.464 176.982 21.6C177.91 17.312 180.086 15.152 183.51 15.12C184.406 15.12 185.094 15.248 185.574 15.504C186.15 15.792 186.614 16.176 186.966 16.656C187.318 17.104 187.622 17.76 187.878 18.624C188.134 19.456 188.294 20.416 188.358 21.504C188.454 22.592 188.486 24.544 188.454 27.36C188.422 29.824 188.374 31.36 188.31 31.968C188.278 32.576 188.198 32.992 188.07 33.216C187.846 33.6 187.574 33.84 187.254 33.936C186.934 34.032 186.23 34.064 185.142 34.032L183.222 33.984L183.318 34.992C183.35 35.664 183.398 36.032 183.462 36.096C183.494 36.16 185.606 36.224 189.798 36.288L196.134 36.336L196.182 35.76C196.246 35.504 196.278 35.232 196.278 34.944C196.31 34.624 196.31 34.368 196.278 34.176C196.246 33.984 196.214 33.888 196.182 33.888C195.894 33.888 195.382 33.824 194.646 33.696C193.942 33.568 193.478 33.472 193.254 33.408C192.966 33.28 192.662 33.072 192.342 32.784C192.022 32.464 191.83 31.984 191.766 31.344C191.734 30.704 191.766 29.328 191.862 27.216C192.022 24.368 191.782 21.68 191.142 19.152C190.502 16.624 189.59 14.784 188.406 13.632C187.734 12.992 186.854 12.496 185.766 12.144C184.678 11.792 183.638 11.664 182.646 11.76C181.494 11.888 180.198 12.352 178.758 13.152C177.638 13.824 176.726 14.656 176.022 15.648C175.702 16.128 175.43 16.448 175.206 16.608C175.014 16.736 174.726 16.8 174.342 16.8C174.022 16.8 173.718 16.688 173.43 16.464C173.174 16.24 172.774 15.744 172.23 14.976C171.526 14.048 170.39 13.328 168.822 12.816C167.254 12.304 165.846 12.176 164.598 12.432C164.054 12.56 163.654 12.736 163.398 12.96C163.142 13.184 162.934 13.536 162.774 14.016C162.614 14.56 162.406 14.944 162.15 15.168C161.926 15.36 161.622 15.472 161.238 15.504C160.822 15.536 160.486 15.424 160.23 15.168C160.006 14.912 159.638 14.304 159.126 13.344C158.55 12.32 158.102 11.744 157.782 11.616ZM215.641 15.408C216.537 15.12 217.385 15.152 218.185 15.504C218.985 15.824 219.609 16.416 220.057 17.28C220.729 17.984 221.225 18.88 221.545 19.968C222.121 21.728 222.233 23.632 221.881 25.68C221.497 27.856 220.681 29.584 219.433 30.864C217.897 32.464 216.009 33.008 213.769 32.496C212.265 32.144 211.193 30.992 210.553 29.04C210.041 27.536 209.865 25.808 210.025 23.856C210.217 21.872 210.697 20.144 211.465 18.672C212.489 16.848 213.817 15.76 215.449 15.408C215.513 15.408 215.577 15.408 215.641 15.408ZM222.457 14.256C221.049 12.784 219.401 11.872 217.513 11.52C214.953 11.04 212.617 11.664 210.505 13.392C208.265 15.216 206.729 17.952 205.897 21.6C205.865 21.92 205.849 22.224 205.849 22.512C205.593 26.224 206.137 29.28 207.481 31.68C208.889 34.24 211.081 35.52 214.057 35.52C215.561 35.52 216.681 35.456 217.417 35.328C218.505 35.168 219.465 34.832 220.297 34.32C222.217 33.168 223.641 31.584 224.569 29.568C224.633 29.408 224.697 29.248 224.761 29.088C225.017 28.416 225.177 27.792 225.241 27.216C225.465 25.68 225.433 23.984 225.145 22.128C224.889 20.272 224.409 18.496 223.705 16.8C223.321 15.904 222.905 15.056 222.457 14.256ZM207.337 1.056C207.881 0.927998 208.521 0.815998 209.257 0.719999C211.465 0.399998 214.329 0.239997 217.849 0.239997H217.897C220.329 0.0799971 222.377 0.0159979 224.041 0.0479994C225.321 0.079999 226.377 0.175999 227.209 0.335999C227.753 0.431999 228.201 0.543999 228.553 0.671997C228.809 0.703999 229.049 0.735999 229.273 0.767999C229.689 0.831998 230.025 0.895998 230.281 0.959999C230.793 1.088 231.177 1.296 231.433 1.584C231.625 1.84 231.769 2.112 231.865 2.4C231.897 2.528 231.913 2.672 231.913 2.832V2.928V2.976V3.024L231.865 3.072C231.865 5.728 231.769 9.376 231.577 14.016C231.545 14.272 231.513 14.672 231.481 15.216C231.321 18.96 231.209 21.76 231.145 23.616C231.145 24.672 231.177 26.272 231.241 28.416C231.241 28.928 231.241 29.328 231.241 29.616C231.337 32.592 231.273 34.976 231.049 36.768C231.049 36.8 231.033 36.88 231.001 37.008V37.056C231.001 37.248 230.985 37.424 230.953 37.584C230.889 37.84 230.825 38.08 230.761 38.304C230.601 38.72 230.377 39.04 230.089 39.264C229.833 39.456 229.449 39.568 228.937 39.6C228.713 39.632 228.393 39.648 227.977 39.648C227.273 39.648 226.313 39.632 225.097 39.6C222.793 39.536 219.961 39.408 216.601 39.216C213.369 39.024 210.569 38.832 208.201 38.64C206.953 38.544 205.993 38.464 205.321 38.4C204.937 38.336 204.633 38.288 204.409 38.256C203.929 38.192 203.577 38.048 203.353 37.824C203.225 37.728 203.113 37.616 203.017 37.488C202.729 37.296 202.505 37.024 202.345 36.672C202.121 36.256 201.929 34.72 201.769 32.064C201.641 30.176 201.513 27.52 201.385 24.096C201.353 23.072 201.305 21.792 201.241 20.256C201.241 20 201.241 19.696 201.241 19.344C201.209 18.896 201.193 18.608 201.193 18.48C201.161 17.776 201.145 17.216 201.145 16.8C201.049 14.4 200.985 12.944 200.953 12.432C200.889 11.632 200.841 10.464 200.809 8.928C200.777 8.768 200.761 8.64 200.761 8.544C200.761 7.52 200.745 6.72 200.713 6.144C200.713 6.112 200.713 6.048 200.713 5.952C200.681 5.856 200.665 5.744 200.665 5.616C200.633 5.488 200.617 5.392 200.617 5.328C200.585 5.008 200.569 4.704 200.569 4.416C200.537 3.84 200.537 3.376 200.569 3.024C200.601 2.736 200.665 2.48 200.761 2.256C200.857 2.032 200.969 1.84 201.097 1.68C201.385 1.424 201.721 1.264 202.105 1.2C203.609 1.04 205.353 0.991999 207.337 1.056ZM234.979 1.632C235.299 1.568 236.643 1.568 239.011 1.632C241.411 1.664 243.875 1.744 246.403 1.872C249.091 2.032 251.827 2.112 254.611 2.112C260.947 2.112 265.043 2.464 266.899 3.168C267.507 3.392 267.939 3.728 268.195 4.176C268.483 4.624 268.691 5.328 268.819 6.288C268.947 7.248 269.059 8.832 269.155 11.04C269.251 13.824 269.379 15.84 269.539 17.088C269.987 21.152 270.243 24.736 270.307 27.84C270.339 30.176 270.291 31.888 270.163 32.976C270.067 34.032 269.843 34.928 269.491 35.664C269.139 36.432 268.675 36.912 268.099 37.104C267.555 37.328 266.659 37.344 265.411 37.152C264.387 36.992 263.203 36.944 261.859 37.008C260.451 37.072 257.859 37.04 254.083 36.912C250.179 36.784 247.347 36.784 245.587 36.912C243.571 37.008 241.427 37.088 239.155 37.152C239.091 37.152 238.995 37.152 238.867 37.152C237.683 37.248 236.771 37.248 236.131 37.152C235.523 37.088 235.139 36.992 234.979 36.864C234.787 36.736 234.563 36.432 234.307 35.952C234.275 35.888 234.243 35.84 234.211 35.808C233.827 35.104 233.603 34.368 233.539 33.6C233.443 32.832 233.475 31.456 233.635 29.472C233.763 27.84 233.715 25.408 233.491 22.176C233.043 15.904 232.835 11.36 232.867 8.544C232.899 5.696 233.187 3.744 233.731 2.688C234.019 2.144 234.435 1.792 234.979 1.632ZM243.715 4.752C240.835 4.592 238.931 4.512 238.003 4.512H236.467L236.611 4.992C236.611 5.056 236.627 5.2 236.659 5.424C236.723 5.648 236.771 5.808 236.803 5.904C236.835 6.064 236.883 6.176 236.947 6.24C237.043 6.304 237.203 6.336 237.427 6.336C237.811 6.336 238.323 6.384 238.963 6.48C240.243 6.704 240.995 7.392 241.219 8.544C241.635 10.496 241.875 14.576 241.939 20.784C242.003 24.624 241.955 27.2 241.795 28.512C241.667 29.792 241.347 30.704 240.835 31.248C240.355 31.728 239.507 31.968 238.291 31.968H237.235L237.139 32.592C237.075 33.008 237.011 33.36 236.947 33.648C236.915 33.84 236.931 33.968 236.995 34.032C237.059 34.064 237.315 34.08 237.763 34.08C238.403 34.08 239.459 33.968 240.931 33.744C242.499 33.552 244.307 33.504 246.355 33.6C248.467 33.664 250.643 33.648 252.883 33.552C254.483 33.488 256.451 33.488 258.787 33.552C261.123 33.616 262.659 33.728 263.395 33.888L263.923 33.936L263.827 30.528C263.763 28.32 263.699 26.416 263.635 24.816L263.539 22.56L262.723 22.704C262.115 22.8 261.571 22.912 261.091 23.04L260.323 23.28L260.707 24.432C260.963 25.2 261.107 26.112 261.139 27.168C261.203 28.192 261.155 29.024 260.995 29.664C260.803 30.304 260.627 30.736 260.467 30.96C260.339 31.152 260.099 31.328 259.747 31.488C259.043 31.84 257.619 31.872 255.475 31.584C254.451 31.456 253.203 31.328 251.731 31.2C249.939 31.072 248.691 30.848 247.987 30.528C247.283 30.208 246.755 29.664 246.403 28.896C246.211 28.512 246.115 27.008 246.115 24.384C246.083 21.696 246.035 18.288 245.971 14.16L245.827 7.872L246.307 7.296C246.723 6.848 247.267 6.576 247.939 6.48C248.611 6.352 249.667 6.352 251.107 6.48C252.451 6.576 253.155 6.592 253.219 6.528V6.336C253.219 6.176 253.203 6 253.171 5.808L253.075 5.136L250.483 5.04C249.267 5.008 247.011 4.912 243.715 4.752ZM295.208 1.392C297.416 1.296 300.728 1.248 305.144 1.248C309.56 1.248 312.248 1.28 313.208 1.344C315.384 1.568 316.888 1.824 317.72 2.112C318.104 2.272 318.472 2.512 318.824 2.832C319.176 3.152 319.4 3.44 319.496 3.696C319.56 3.92 319.64 4.848 319.736 6.48C319.864 8.88 319.736 12.256 319.352 16.608C318.968 20.8 318.872 24.24 319.064 26.928C319.32 30.768 319.416 33.36 319.352 34.704C319.32 36.016 319.112 36.864 318.728 37.248C318.344 37.6 317.704 37.808 316.808 37.872C315.912 37.968 313.688 38.016 310.136 38.016C292.312 37.952 281.912 37.904 278.936 37.872C275.992 37.84 274.296 37.728 273.848 37.536C273.336 37.344 272.984 37.152 272.792 36.96C272.568 36.768 272.392 36.464 272.264 36.048C272.072 35.408 271.928 34.384 271.832 32.976C271.736 31.568 271.64 28.832 271.544 24.768C271.448 19.36 271.464 15.552 271.592 13.344C271.72 11.104 271.816 9.008 271.88 7.056C271.944 5.456 272.04 4.416 272.168 3.936C272.264 3.424 272.504 3.024 272.888 2.736C273.368 2.416 273.992 2.208 274.76 2.112C275.528 2.016 277.032 1.968 279.272 1.968C281.992 1.968 284.856 1.888 287.864 1.728C289.4 1.632 291.848 1.52 295.208 1.392ZM313.112 4.368C311.576 4.24 310.12 4.16 308.744 4.128C307.368 4.096 306.648 4.144 306.584 4.272C306.52 4.528 306.424 4.88 306.296 5.328C305.88 6.896 304.808 9.728 303.08 13.824C301.224 18.176 300.024 21.296 299.48 23.184C299.16 24.336 298.888 25.056 298.664 25.344C298.44 25.6 298.008 25.776 297.368 25.872C296.888 25.936 296.504 25.888 296.216 25.728C295.928 25.568 295.72 25.36 295.592 25.104C295.496 24.816 295.288 24.08 294.968 22.896C294.712 21.808 294.376 20.784 293.96 19.824C293.416 18.48 292.648 16.176 291.656 12.912C290.952 10.544 290.44 8.944 290.12 8.112C289.832 7.248 289.48 6.448 289.064 5.712L288.488 4.608L287.624 4.752C287.08 4.816 285.08 4.864 281.624 4.896C280.792 4.896 279.928 4.912 279.032 4.944C278.168 4.944 277.496 4.944 277.016 4.944H276.296C276.136 4.976 276.056 5.264 276.056 5.808V6.624L277.544 6.576C278.536 6.576 279.208 6.688 279.56 6.912C279.912 7.104 280.152 7.344 280.28 7.632C280.472 8.048 280.696 10.432 280.952 14.784C281.24 19.104 281.384 22.784 281.384 25.824C281.384 28.992 281.304 30.832 281.144 31.344C280.888 32.208 280.408 32.816 279.704 33.168C279.48 33.264 278.984 33.392 278.216 33.552C277.448 33.68 276.872 33.744 276.488 33.744C276.2 33.744 276.024 33.776 275.96 33.84C275.928 33.872 275.944 34 276.008 34.224C276.04 34.544 276.088 34.736 276.152 34.8C276.216 34.864 278.024 34.896 281.576 34.896C285.16 34.864 287.512 34.816 288.632 34.752L290.456 34.656L290.12 33.936L289.784 33.264L288.68 33.216C288.04 33.216 287.416 33.12 286.808 32.928C286.232 32.736 285.816 32.496 285.56 32.208C285.208 31.824 284.984 31.312 284.888 30.672C284.824 30 284.872 29.008 285.032 27.696C285.192 26.352 285.24 24.592 285.176 22.416C285.08 19.184 284.744 16.288 284.168 13.728C283.88 12.48 283.736 11.696 283.736 11.376C283.736 11.056 283.88 10.768 284.168 10.512C284.488 10.224 284.824 10.08 285.176 10.08C285.592 10.08 285.928 10.24 286.184 10.56C286.44 10.88 286.696 11.44 286.952 12.24C287.56 14.288 289.016 18.512 291.32 24.912C293.048 29.808 294.024 32.592 294.248 33.264L294.776 34.8H296.264C297.224 34.8 297.832 34.832 298.088 34.896C298.248 34.96 298.344 34.976 298.376 34.944C298.408 34.88 298.424 34.736 298.424 34.512C298.456 32.976 299.256 30.496 300.824 27.072C301.72 25.152 302.392 23.2 302.84 21.216C303.16 19.744 303.592 18.176 304.136 16.512C304.616 15.04 304.984 14.128 305.24 13.776C305.496 13.392 305.896 13.2 306.44 13.2C306.92 13.2 307.288 13.344 307.544 13.632C307.8 13.92 307.992 14.336 308.12 14.88C308.28 15.424 308.424 16.368 308.552 17.712C308.904 21.072 309.128 24.176 309.224 27.024C309.32 29.84 309.256 31.488 309.032 31.968C308.808 32.512 308.36 32.896 307.688 33.12C307.048 33.344 306.008 33.488 304.568 33.552C303.544 33.616 302.936 33.696 302.744 33.792C302.584 33.856 302.536 34.112 302.6 34.56C302.664 34.816 302.792 34.976 302.984 35.04C303.208 35.104 305.352 35.136 309.416 35.136C313.48 35.136 315.656 35.104 315.944 35.04C316.136 34.976 316.264 34.912 316.328 34.848C316.392 34.784 316.424 34.672 316.424 34.512C316.424 34.32 316.376 34.208 316.28 34.176C316.216 34.112 316.024 34.064 315.704 34.032C314.264 33.872 313.384 33.2 313.064 32.016C312.808 31.088 312.6 29.024 312.44 25.824C312.28 22.592 312.216 19.008 312.248 15.072C312.28 12.288 312.312 10.592 312.344 9.984C312.376 9.344 312.472 8.864 312.632 8.544C312.856 8.064 313.144 7.696 313.496 7.44C313.816 7.216 314.248 7.008 314.792 6.816C315.368 6.592 315.832 6.48 316.184 6.48H316.76L316.712 5.664L316.664 4.896L315.752 4.704C315.144 4.576 314.264 4.464 313.112 4.368ZM346.629 1.92C349.445 1.856 351.141 2.112 351.717 2.688C352.293 3.264 353.013 7.392 353.877 15.072C354.261 18.752 354.485 21.12 354.549 22.176C354.613 23.232 354.629 25.12 354.597 27.84C354.501 32.224 354.293 34.736 353.973 35.376C353.845 35.696 353.525 36 353.013 36.288C352.501 36.608 351.957 36.832 351.381 36.96C350.421 37.216 349.333 37.376 348.117 37.44C346.901 37.536 344.517 37.616 340.965 37.68C336.229 37.744 332.885 37.84 330.933 37.968C329.109 38.096 327.525 38.128 326.181 38.064C325.157 38.032 324.469 37.952 324.117 37.824C323.797 37.696 323.493 37.376 323.205 36.864C322.661 35.936 322.293 34.128 322.101 31.44C321.941 29.584 322.069 26.496 322.485 22.176C322.645 20.288 322.693 18.4 322.629 16.512C322.597 15.168 322.549 14.208 322.485 13.632C322.421 13.024 322.261 12.128 322.005 10.944C321.621 9.184 321.429 7.808 321.429 6.816C321.429 6.144 321.445 5.696 321.477 5.472C321.509 5.248 321.621 4.96 321.813 4.608C322.229 3.936 322.757 3.52 323.397 3.36C324.069 3.2 325.573 3.136 327.909 3.168C330.341 3.168 332.853 3.04 335.445 2.784C340.885 2.272 344.613 1.984 346.629 1.92ZM347.829 5.184C347.477 5.088 347.221 5.072 347.061 5.136C346.901 5.2 346.773 5.36 346.677 5.616C346.453 6.32 345.973 6.704 345.237 6.768C344.533 6.832 343.173 6.592 341.157 6.048C340.389 5.856 339.845 5.76 339.525 5.76C339.237 5.728 338.725 5.76 337.989 5.856C334.757 6.176 331.973 7.248 329.637 9.072C329.285 9.328 329.061 9.536 328.965 9.696C328.869 9.856 328.773 10.128 328.677 10.512C328.613 10.96 328.613 11.6 328.677 12.432C328.741 13.264 328.853 13.952 329.013 14.496C329.621 16.64 331.285 18.336 334.005 19.584C334.549 19.872 336.037 20.416 338.469 21.216C340.389 21.856 341.733 22.368 342.501 22.752C343.301 23.104 343.957 23.536 344.469 24.048C344.981 24.56 345.333 25.072 345.525 25.584C345.717 26.064 345.781 26.688 345.717 27.456C345.685 28.544 345.413 29.424 344.901 30.096C344.421 30.768 343.637 31.36 342.549 31.872C341.493 32.384 340.533 32.688 339.669 32.784C338.837 32.88 337.797 32.832 336.549 32.64C333.189 32.064 331.029 30.736 330.069 28.656C329.877 28.272 329.749 27.904 329.685 27.552C329.653 27.2 329.637 26.288 329.637 24.816C329.605 22.8 329.541 21.664 329.445 21.408L329.301 21.024L328.581 21.36C328.101 21.616 327.701 21.888 327.381 22.176C327.157 22.368 327.013 22.56 326.949 22.752C326.885 22.912 326.821 23.344 326.757 24.048C326.693 24.752 326.693 26.608 326.757 29.616C326.821 32.592 326.885 34.288 326.949 34.704C327.013 34.896 327.077 35.024 327.141 35.088C327.205 35.12 327.381 35.136 327.669 35.136H328.293L328.197 33.888C328.133 33.184 328.149 32.672 328.245 32.352C328.373 32.032 328.629 31.792 329.013 31.632C329.461 31.472 330.229 31.632 331.317 32.112C332.629 32.72 334.421 33.248 336.693 33.696C339.989 34.336 342.789 34.4 345.093 33.888C346.405 33.632 347.269 33.28 347.685 32.832C348.037 32.448 348.405 31.552 348.789 30.144C349.173 28.704 349.365 27.552 349.365 26.688C349.365 26.336 349.317 25.76 349.221 24.96L349.029 23.808L347.445 22.176C346.453 21.184 345.541 20.48 344.709 20.064C343.909 19.648 342.117 18.992 339.333 18.096C336.677 17.2 334.997 16.592 334.293 16.272C331.381 14.896 330.501 12.96 331.653 10.464C331.941 9.856 332.325 9.296 332.805 8.784C333.317 8.24 333.813 7.856 334.293 7.632C334.805 7.408 335.477 7.28 336.309 7.248C337.173 7.184 337.925 7.248 338.565 7.44C341.061 8.048 343.061 9.552 344.565 11.952C344.661 12.08 344.965 12.544 345.477 13.344C345.957 14.048 346.277 14.72 346.437 15.36C346.501 15.584 346.613 15.712 346.773 15.744C346.965 15.776 347.333 15.744 347.877 15.648L348.405 15.6L348.261 10.416C348.197 7.888 348.149 6.4 348.117 5.952C348.085 5.504 347.989 5.248 347.829 5.184Z" fill="white"/>
</svg>
