<svg width="296" height="36" viewBox="0 0 296 36" fill="none" xmlns="http://www.w3.org/2000/svg">
<path d="M19.96 1.16C21.8 1.08 24.56 1.04 28.24 1.04C31.92 1.04 34.16 1.06666 34.96 1.12C36.7733 1.30666 38.0267 1.52 38.72 1.76C39.04 1.89333 39.3467 2.09333 39.64 2.36C39.9333 2.62666 40.12 2.86666 40.2 3.08C40.2533 3.26667 40.32 4.04 40.4 5.4C40.5067 7.4 40.4 10.2133 40.08 13.84C39.76 17.3333 39.68 20.2 39.84 22.44C40.0533 25.64 40.1333 27.8 40.08 28.92C40.0533 30.0133 39.88 30.72 39.56 31.04C39.24 31.3333 38.7067 31.5067 37.96 31.56C37.2133 31.64 35.36 31.68 32.4 31.68C17.5467 31.6267 8.88 31.5867 6.4 31.56C3.94667 31.5333 2.53333 31.44 2.16 31.28C1.73333 31.12 1.44 30.96 1.28 30.8C1.09333 30.64 0.946667 30.3867 0.84 30.04C0.68 29.5067 0.56 28.6533 0.48 27.48C0.4 26.3067 0.32 24.0267 0.24 20.64C0.16 16.1333 0.173333 12.96 0.28 11.12C0.386667 9.25333 0.466667 7.50666 0.52 5.88C0.573333 4.54666 0.653333 3.68 0.76 3.28C0.84 2.85333 1.04 2.52 1.36 2.28C1.76 2.01333 2.28 1.84 2.92 1.76C3.56 1.68 4.81333 1.64 6.68 1.64C8.94667 1.64 11.3333 1.57333 13.84 1.44C15.12 1.36 17.16 1.26667 19.96 1.16ZM34.88 3.64C33.6 3.53333 32.3867 3.46666 31.24 3.44C30.0933 3.41333 29.4933 3.45333 29.44 3.56C29.3867 3.77333 29.3067 4.06666 29.2 4.44C28.8533 5.74667 27.96 8.10667 26.52 11.52C24.9733 15.1467 23.9733 17.7467 23.52 19.32C23.2533 20.28 23.0267 20.88 22.84 21.12C22.6533 21.3333 22.2933 21.48 21.76 21.56C21.36 21.6133 21.04 21.5733 20.8 21.44C20.56 21.3067 20.3867 21.1333 20.28 20.92C20.2 20.68 20.0267 20.0667 19.76 19.08C19.5467 18.1733 19.2667 17.32 18.92 16.52C18.4667 15.4 17.8267 13.48 17 10.76C16.4133 8.78667 15.9867 7.45333 15.72 6.76C15.48 6.04 15.1867 5.37333 14.84 4.76L14.36 3.84L13.64 3.96C13.1867 4.01333 11.52 4.05333 8.64 4.08C7.94667 4.08 7.22667 4.09333 6.48 4.12C5.76 4.12 5.2 4.12 4.8 4.12H4.2C4.06667 4.14667 4 4.38667 4 4.84V5.52L5.24 5.48C6.06667 5.48 6.62667 5.57333 6.92 5.76C7.21333 5.92 7.41333 6.12 7.52 6.36C7.68 6.70667 7.86667 8.69333 8.08 12.32C8.32 15.92 8.44 18.9867 8.44 21.52C8.44 24.16 8.37333 25.6933 8.24 26.12C8.02667 26.84 7.62667 27.3467 7.04 27.64C6.85333 27.72 6.44 27.8267 5.8 27.96C5.16 28.0667 4.68 28.12 4.36 28.12C4.12 28.12 3.97333 28.1467 3.92 28.2C3.89333 28.2267 3.90667 28.3333 3.96 28.52C3.98667 28.7867 4.02667 28.9467 4.08 29C4.13333 29.0533 5.64 29.08 8.6 29.08C11.5867 29.0533 13.5467 29.0133 14.48 28.96L16 28.88L15.72 28.28L15.44 27.72L14.52 27.68C13.9867 27.68 13.4667 27.6 12.96 27.44C12.48 27.28 12.1333 27.08 11.92 26.84C11.6267 26.52 11.44 26.0933 11.36 25.56C11.3067 25 11.3467 24.1733 11.48 23.08C11.6133 21.96 11.6533 20.4933 11.6 18.68C11.52 15.9867 11.24 13.5733 10.76 11.44C10.52 10.4 10.4 9.74667 10.4 9.48C10.4 9.21333 10.52 8.97333 10.76 8.76C11.0267 8.52 11.3067 8.4 11.6 8.4C11.9467 8.4 12.2267 8.53333 12.44 8.8C12.6533 9.06667 12.8667 9.53333 13.08 10.2C13.5867 11.9067 14.8 15.4267 16.72 20.76C18.16 24.84 18.9733 27.16 19.16 27.72L19.6 29H20.84C21.64 29 22.1467 29.0267 22.36 29.08C22.4933 29.1333 22.5733 29.1467 22.6 29.12C22.6267 29.0667 22.64 28.9467 22.64 28.76C22.6667 27.48 23.3333 25.4133 24.64 22.56C25.3867 20.96 25.9467 19.3333 26.32 17.68C26.5867 16.4533 26.9467 15.1467 27.4 13.76C27.8 12.5333 28.1067 11.7733 28.32 11.48C28.5333 11.16 28.8667 11 29.32 11C29.72 11 30.0267 11.12 30.24 11.36C30.4533 11.6 30.6133 11.9467 30.72 12.4C30.8533 12.8533 30.9733 13.64 31.08 14.76C31.3733 17.56 31.56 20.1467 31.64 22.52C31.72 24.8667 31.6667 26.24 31.48 26.64C31.2933 27.0933 30.92 27.4133 30.36 27.6C29.8267 27.7867 28.96 27.9067 27.76 27.96C26.9067 28.0133 26.4 28.08 26.24 28.16C26.1067 28.2133 26.0667 28.4267 26.12 28.8C26.1733 29.0133 26.28 29.1467 26.44 29.2C26.6267 29.2533 28.4133 29.28 31.8 29.28C35.1867 29.28 37 29.2533 37.24 29.2C37.4 29.1467 37.5067 29.0933 37.56 29.04C37.6133 28.9867 37.64 28.8933 37.64 28.76C37.64 28.6 37.6 28.5067 37.52 28.48C37.4667 28.4267 37.3067 28.3867 37.04 28.36C35.84 28.2267 35.1067 27.6667 34.84 26.68C34.6267 25.9067 34.4533 24.1867 34.32 21.52C34.1867 18.8267 34.1333 15.84 34.16 12.56C34.1867 10.24 34.2133 8.82667 34.24 8.32C34.2667 7.78666 34.3467 7.38667 34.48 7.12C34.6667 6.72 34.9067 6.41333 35.2 6.2C35.4667 6.01333 35.8267 5.84 36.28 5.68C36.76 5.49333 37.1467 5.4 37.44 5.4H37.92L37.88 4.72L37.84 4.08L37.08 3.92C36.5733 3.81333 35.84 3.72 34.88 3.64ZM51.6909 32.72C50.5709 32.8533 49.4776 32.8133 48.4109 32.6C48.1176 32.52 47.8376 32.44 47.5709 32.36C47.4909 32.36 47.4243 32.36 47.3709 32.36C46.2243 32.2267 45.3043 32.0933 44.6109 31.96C43.6509 31.7467 43.0109 31.5067 42.6909 31.24C42.3976 30.9733 42.1843 30.56 42.0509 30C41.9443 29.6533 41.8643 29.2133 41.8109 28.68C41.7043 27.8267 41.6376 26.7333 41.6109 25.4C41.6109 24.44 41.6109 23.2667 41.6109 21.88C41.6109 21.8267 41.6243 21.6933 41.6509 21.48C41.6509 21.24 41.6509 21.1067 41.6509 21.08C41.6509 20.84 41.6509 20.6667 41.6509 20.56C41.6509 20.3467 41.6509 19.96 41.6509 19.4C41.6243 17.6133 41.6376 16.2 41.6909 15.16C41.8243 12.6267 42.2109 10.6933 42.8509 9.36C42.8776 9.25333 42.9176 9.14666 42.9709 9.04C43.1309 8.42666 43.3843 7.98666 43.7309 7.72C44.2109 7.26667 44.9976 6.98667 46.0909 6.88C46.7843 6.82667 47.6776 6.82667 48.7709 6.88C49.3043 6.90667 49.9309 6.96 50.6509 7.04C50.7043 7.04 50.9043 7.06667 51.2509 7.12C51.6243 7.14667 51.8509 7.16 51.9309 7.16C52.3309 7.21333 52.6109 7.24 52.7709 7.24C54.7176 7.29333 56.9309 7.24 59.4109 7.08C59.4909 7.08 59.7043 7.06667 60.0509 7.04C60.4243 7.01333 60.6376 7 60.6909 7C61.1709 6.97333 61.5709 6.94667 61.8909 6.92C62.7176 6.89333 63.3976 6.89333 63.9309 6.92C65.3976 7.02667 66.5043 7.50667 67.2509 8.36C67.9443 9.18667 68.4109 10.52 68.6509 12.36C68.8109 13.8267 68.8909 16.1733 68.8909 19.4C68.8909 19.9067 68.9576 20.9733 69.0909 22.6C69.1709 23.6667 69.2243 24.5067 69.2509 25.12C69.3043 26.5067 69.2909 27.68 69.2109 28.64C69.0776 29.9467 68.7843 31.0133 68.3309 31.84C68.1709 32.1333 67.9576 32.36 67.6909 32.52C67.1043 32.8667 65.5043 33.0667 62.8909 33.12C60.6776 33.1467 58.0776 33.0933 55.0909 32.96C53.9176 32.88 52.7843 32.8 51.6909 32.72ZM59.2509 12.92C58.9309 12.4933 58.7309 12.2267 58.6509 12.12C58.3309 11.72 58.0376 11.3867 57.7709 11.12C56.8643 10.64 55.8509 10.3067 54.7309 10.12C54.5709 10.0933 54.3976 10.0667 54.2109 10.04C53.4643 10.0667 52.6109 10.08 51.6509 10.08C50.8243 10.1867 50.0509 10.3733 49.3309 10.64C48.8243 10.96 48.3043 11.4133 47.7709 12C47.2643 12.56 46.8509 13.1467 46.5309 13.76C46.1576 14.5067 45.9976 15.1467 46.0509 15.68C46.0776 16.1867 46.3309 16.6 46.8109 16.92C47.0776 17.08 47.4109 17.1867 47.8109 17.24C48.3976 17.2933 48.8776 17.2933 49.2509 17.24C49.3576 17.2133 49.4643 17.1867 49.5709 17.16C49.5976 17.16 49.6243 17.1467 49.6509 17.12C49.6776 17.12 49.6909 17.1067 49.6909 17.08C49.6909 17.0533 49.7043 17.0133 49.7309 16.96C49.7309 16.8 49.6909 16.5733 49.6109 16.28C49.5843 16.1467 49.5309 15.96 49.4509 15.72C49.2909 15.1867 49.1976 14.8133 49.1709 14.6C49.1176 14.36 49.0909 14.1467 49.0909 13.96C49.1176 13.6133 49.2109 13.32 49.3709 13.08C49.6376 12.6 50.0909 12.2533 50.7309 12.04C51.1576 11.88 51.6643 11.7867 52.2509 11.76C53.2643 11.7067 54.1309 11.8133 54.8509 12.08C54.9043 12.1067 54.9576 12.12 55.0109 12.12C55.3843 12.1733 55.7309 12.2533 56.0509 12.36C56.7176 12.5733 57.2909 13.0133 57.7709 13.68C58.2776 14.4 58.5043 15.0933 58.4509 15.76C58.3709 16.48 57.9976 17.0667 57.3309 17.52C56.9043 17.8133 56.3176 18.0667 55.5709 18.28C55.0643 18.44 54.3576 18.6133 53.4509 18.8C53.3443 18.8267 53.0776 18.88 52.6509 18.96C52.2509 19.04 52.0243 19.08 51.9709 19.08C51.3843 19.2133 50.8776 19.32 50.4509 19.4C50.3976 19.4267 50.3309 19.4533 50.2509 19.48C50.0909 19.5333 49.9176 19.5733 49.7309 19.6C47.6243 20.16 46.1443 20.8667 45.2909 21.72C44.7576 22.28 44.4509 22.9467 44.3709 23.72C44.2376 24.7067 44.4243 25.8667 44.9309 27.2C45.4376 28.56 46.4776 29.4933 48.0509 30C49.1176 30.1333 50.3176 30.24 51.6509 30.32C52.6643 30.1867 53.5709 29.9067 54.3709 29.48L54.4109 29.44C54.4376 29.4133 54.4909 29.36 54.5709 29.28C54.6776 29.1733 54.8509 28.9867 55.0909 28.72C55.4109 28.3733 55.6376 28.1333 55.7709 28C55.9309 27.8667 56.0643 27.76 56.1709 27.68C56.4109 27.4933 56.6509 27.3867 56.8909 27.36C57.2909 27.3067 57.6909 27.3867 58.0909 27.6C58.3043 27.7067 58.5443 27.88 58.8109 28.12C58.8643 28.1733 58.9443 28.2533 59.0509 28.36C59.1576 28.44 59.2643 28.5467 59.3709 28.68C59.4776 28.7867 59.5843 28.8933 59.6909 29C59.7976 29.08 59.8776 29.16 59.9309 29.24L60.0509 29.36C60.8776 30.16 61.5576 30.6 62.0909 30.68C62.3843 30.7333 62.6909 30.68 63.0109 30.52C63.4643 30.28 63.9576 29.84 64.4909 29.2V29.16V29.12C64.5443 28.96 64.5976 28.7467 64.6509 28.48C64.7309 27.8933 64.7843 27.1333 64.8109 26.2C64.8376 25.1067 64.8376 23.8267 64.8109 22.36C64.2243 22.5467 63.8243 22.68 63.6109 22.76C63.5309 22.7867 63.4643 22.8133 63.4109 22.84C63.4109 22.9467 63.4109 23.12 63.4109 23.36C63.4109 23.3867 63.4243 23.48 63.4509 23.64C63.4776 24.0133 63.4909 24.3733 63.4909 24.72C63.5176 25.04 63.5309 25.36 63.5309 25.68C63.5309 26 63.4109 26.28 63.1709 26.52C62.9309 26.76 62.6376 26.88 62.2909 26.88C61.9709 26.88 61.6909 26.76 61.4509 26.52C61.2376 26.28 61.1309 26 61.1309 25.68C61.1309 25.3333 61.1176 24.96 61.0909 24.56C61.0909 24.5333 61.0909 24.4933 61.0909 24.44C61.0909 24.36 61.0776 24.12 61.0509 23.72C60.9709 22.8133 60.8376 21.2933 60.6509 19.16V19.08C60.5176 17.6133 60.4243 16.56 60.3709 15.92C60.2376 15.5467 60.1176 15.1867 60.0109 14.84C59.7709 14.1467 59.5176 13.5067 59.2509 12.92ZM53.0909 20.96C53.8376 20.64 54.5309 20.4267 55.1709 20.32C55.7309 20.2133 56.2243 20.2133 56.6509 20.32C57.3443 20.4533 57.8243 20.8 58.0909 21.36C58.3309 21.8933 58.3443 22.5067 58.1309 23.2C57.9443 23.76 57.6109 24.3867 57.1309 25.08C56.1976 26.44 54.9976 27.28 53.5309 27.6C52.9176 27.7067 52.3043 27.72 51.6909 27.64C50.7309 27.5867 49.9176 27.3733 49.2509 27C48.9309 26.7867 48.6776 26.56 48.4909 26.32C48.3309 26.08 48.2243 25.8267 48.1709 25.56C48.0109 25.32 47.9043 25.0667 47.8509 24.8C47.7176 24.16 47.8243 23.5733 48.1709 23.04C48.4909 22.56 48.9976 22.2 49.6909 21.96C50.8376 21.5067 51.9709 21.1733 53.0909 20.96ZM70.9991 1.2C71.4257 1.09333 71.8924 1.04 72.3991 1.04C72.9057 1.04 74.7857 1.09333 78.0391 1.2C88.8657 1.54667 94.6391 1.93333 95.3591 2.36C95.6257 2.49333 95.8124 2.72 95.9191 3.04C96.0257 3.36 96.1191 3.90666 96.1991 4.68C96.3057 5.53333 96.3591 7.68 96.3591 11.12C96.3591 14.56 96.3057 17.52 96.1991 20C96.1724 20.8 96.1324 22.16 96.0791 24.08C96.0257 26 95.9857 27.0133 95.9591 27.12C95.9057 28.88 95.8391 30.0267 95.7591 30.56C95.7057 31.12 95.5724 31.6533 95.3591 32.16C95.3591 32.1867 95.3457 32.2267 95.3191 32.28C95.1324 32.7067 94.8124 32.9867 94.3591 33.12C93.9324 33.2533 92.5057 33.5067 90.0791 33.88C89.7857 33.9067 89.5591 33.9333 89.3991 33.96C81.7191 35.08 76.7324 35.5867 74.4391 35.48C73.2391 35.4267 72.4391 35.24 72.0391 34.92C71.6124 34.6 71.2257 33.8533 70.8791 32.68C70.3457 31 69.9591 28.4 69.7191 24.88C69.6124 23.5467 69.5457 19.56 69.5191 12.92C69.4657 6.25333 69.4924 2.76 69.5991 2.44C69.7591 1.8 70.2257 1.38666 70.9991 1.2ZM88.8391 9.36C88.6791 9.25333 88.5324 9.22667 88.3991 9.28C88.2924 9.30667 88.2391 9.38667 88.2391 9.52C88.2391 9.94667 87.9857 10.3733 87.4791 10.8C87.2391 11.0133 86.9591 11.12 86.6391 11.12C86.3457 11.12 85.8924 11.04 85.2791 10.88C83.5457 10.3733 81.9724 10.12 80.5591 10.12C79.1991 10.12 78.1857 10.3333 77.5191 10.76C77.1191 11 76.6657 11.5333 76.1591 12.36C75.6791 13.16 75.3724 13.8933 75.2391 14.56C74.8124 16.56 75.7457 18.1333 78.0391 19.28C78.8124 19.68 80.6391 20.32 83.5191 21.2C85.4924 21.7867 86.8124 22.5067 87.4791 23.36C88.1724 24.2133 88.2924 25.28 87.8391 26.56C87.1191 28.48 85.3724 29.2533 82.5991 28.88C81.1857 28.6933 79.9457 28.2933 78.8791 27.68C77.8124 27.04 77.0524 26.2533 76.5991 25.32C76.3857 24.8933 76.2791 24.1733 76.2791 23.16C76.2791 22.4133 76.2657 21.9733 76.2391 21.84C76.2124 21.7067 76.1324 21.64 75.9991 21.64C75.7857 21.64 75.5724 21.76 75.3591 22C75.1724 22.2133 75.0524 22.5067 74.9991 22.88C74.8124 23.8133 74.7191 25.12 74.7191 26.8C74.7191 28.48 74.8124 29.6133 74.9991 30.2C75.0791 30.44 75.1457 30.5733 75.1991 30.6C75.2524 30.6533 75.4124 30.6667 75.6791 30.64C76.0257 30.6133 76.2657 30.5467 76.3991 30.44C76.5324 30.36 76.6257 30.1867 76.6791 29.92C76.7324 29.6267 76.8657 29.36 77.0791 29.12C77.2924 28.88 77.5324 28.7333 77.7991 28.68C78.3591 28.5733 79.3591 28.8533 80.7991 29.52C81.7057 29.9467 82.4924 30.1867 83.1591 30.24C84.7591 30.32 86.1991 29.9467 87.4791 29.12C88.7857 28.2667 89.6524 27.12 90.0791 25.68C90.4257 24.64 90.4257 23.7733 90.0791 23.08C89.7857 22.44 89.2124 21.8933 88.3591 21.44C87.5057 20.96 86.0657 20.3867 84.0391 19.72C81.1591 18.8133 79.3057 17.9867 78.4791 17.24C77.6791 16.4667 77.5457 15.4533 78.0791 14.2C78.3724 13.5333 79.0257 12.96 80.0391 12.48C81.0791 12 82.1857 11.76 83.3591 11.76C84.4257 11.76 85.2924 12.1333 85.9591 12.88C86.6524 13.6 87.0791 14.6267 87.2391 15.96C87.3191 16.7867 87.3591 17.2133 87.3591 17.24C87.3857 17.24 87.6524 17.2133 88.1591 17.16L88.9191 17.08L88.9591 13.28C88.9857 10.7467 88.9457 9.44 88.8391 9.36ZM109.63 12.84C110.377 12.6 111.084 12.6267 111.75 12.92C112.417 13.1867 112.937 13.68 113.31 14.4C113.87 14.9867 114.284 15.7333 114.55 16.64C115.03 18.1067 115.124 19.6933 114.83 21.4C114.51 23.2133 113.83 24.6533 112.79 25.72C111.51 27.0533 109.937 27.5067 108.07 27.08C106.817 26.7867 105.924 25.8267 105.39 24.2C104.964 22.9467 104.817 21.5067 104.95 19.88C105.11 18.2267 105.51 16.7867 106.15 15.56C107.004 14.04 108.11 13.1333 109.47 12.84C109.524 12.84 109.577 12.84 109.63 12.84ZM115.31 11.88C114.137 10.6533 112.764 9.89333 111.19 9.6C109.057 9.2 107.11 9.72 105.35 11.16C103.484 12.68 102.204 14.96 101.51 18C101.484 18.2667 101.47 18.52 101.47 18.76C101.257 21.8533 101.71 24.4 102.83 26.4C104.004 28.5333 105.83 29.6 108.31 29.6C109.564 29.6 110.497 29.5467 111.11 29.44C112.017 29.3067 112.817 29.0267 113.51 28.6C115.11 27.64 116.297 26.32 117.07 24.64C117.124 24.5067 117.177 24.3733 117.23 24.24C117.444 23.68 117.577 23.16 117.63 22.68C117.817 21.4 117.79 19.9867 117.55 18.44C117.337 16.8933 116.937 15.4133 116.35 14C116.03 13.2533 115.684 12.5467 115.31 11.88ZM102.71 0.879998C103.164 0.773331 103.697 0.679998 104.31 0.599999C106.15 0.333331 108.537 0.199997 111.47 0.199997H111.51C113.537 0.0666642 115.244 0.0133316 116.63 0.0399995C117.697 0.0666658 118.577 0.146666 119.27 0.279999C119.724 0.359999 120.097 0.453332 120.39 0.559998C120.604 0.586665 120.804 0.613333 120.99 0.639999C121.337 0.693332 121.617 0.746665 121.83 0.799999C122.257 0.906666 122.577 1.08 122.79 1.32C122.95 1.53333 123.07 1.76 123.15 2C123.177 2.10666 123.19 2.22667 123.19 2.36V2.44V2.48V2.52L123.15 2.56C123.15 4.77333 123.07 7.81333 122.91 11.68C122.884 11.8933 122.857 12.2267 122.83 12.68C122.697 15.8 122.604 18.1333 122.55 19.68C122.55 20.56 122.577 21.8933 122.63 23.68C122.63 24.1067 122.63 24.44 122.63 24.68C122.71 27.16 122.657 29.1467 122.47 30.64C122.47 30.6667 122.457 30.7333 122.43 30.84V30.88C122.43 31.04 122.417 31.1867 122.39 31.32C122.337 31.5333 122.284 31.7333 122.23 31.92C122.097 32.2667 121.91 32.5333 121.67 32.72C121.457 32.88 121.137 32.9733 120.71 33C120.524 33.0267 120.257 33.04 119.91 33.04C119.324 33.04 118.524 33.0267 117.51 33C115.59 32.9467 113.23 32.84 110.43 32.68C107.737 32.52 105.404 32.36 103.43 32.2C102.39 32.12 101.59 32.0533 101.03 32C100.71 31.9467 100.457 31.9067 100.27 31.88C99.8703 31.8267 99.577 31.7067 99.3903 31.52C99.2836 31.44 99.1903 31.3467 99.1103 31.24C98.8703 31.08 98.6836 30.8533 98.5503 30.56C98.3636 30.2133 98.2036 28.9333 98.0703 26.72C97.9636 25.1467 97.857 22.9333 97.7503 20.08C97.7236 19.2267 97.6836 18.16 97.6303 16.88C97.6303 16.6667 97.6303 16.4133 97.6303 16.12C97.6036 15.7467 97.5903 15.5067 97.5903 15.4C97.5636 14.8133 97.5503 14.3467 97.5503 14C97.4703 12 97.417 10.7867 97.3903 10.36C97.337 9.69333 97.297 8.72 97.2703 7.44C97.2436 7.30667 97.2303 7.2 97.2303 7.12C97.2303 6.26667 97.217 5.6 97.1903 5.12C97.1903 5.09333 97.1903 5.04 97.1903 4.96C97.1636 4.88 97.1503 4.78667 97.1503 4.68C97.1236 4.57333 97.1103 4.49333 97.1103 4.44C97.0836 4.17333 97.0703 3.92 97.0703 3.68C97.0436 3.2 97.0436 2.81333 97.0703 2.52C97.097 2.28 97.1503 2.06667 97.2303 1.88C97.3103 1.69333 97.4036 1.53333 97.5103 1.4C97.7503 1.18666 98.0303 1.05333 98.3503 0.999999C99.6036 0.866666 101.057 0.826666 102.71 0.879998ZM131.025 0.999999C131.692 0.946665 132.799 0.919998 134.345 0.919998C135.919 0.919998 137.225 0.946665 138.265 0.999999C139.492 1.10667 141.625 1.32 144.665 1.64L149.145 2.16L153.385 2.08C157.545 2 159.945 2.12 160.585 2.44C161.199 2.76 161.745 3.52 162.225 4.72C163.292 7.33333 164.332 11.5733 165.345 17.44C165.692 19.4133 165.865 21.04 165.865 22.32C165.839 24.2667 165.745 26.3067 165.585 28.44C165.452 30.5467 165.305 31.7467 165.145 32.04C164.959 32.4133 164.559 32.6267 163.945 32.68C163.332 32.7333 161.385 32.7467 158.105 32.72C140.772 32.48 130.772 32.4 128.105 32.48L124.905 32.6L124.225 32.28C123.772 32.04 123.465 31.8267 123.305 31.64C123.039 31.2667 122.905 30.56 122.905 29.52C122.905 28.48 123.039 26.7467 123.305 24.32C123.385 23.44 123.425 22.6133 123.425 21.84C123.425 21.0667 123.372 19.2667 123.265 16.44C123.132 12.3333 123.092 9.33333 123.145 7.44C123.172 5.38667 123.292 4.04 123.505 3.4C123.692 2.73333 124.105 2.24 124.745 1.92C125.385 1.65333 126.665 1.42667 128.585 1.24C129.305 1.18667 130.119 1.10667 131.025 0.999999ZM130.985 9.68C130.772 9.57333 130.239 9.49333 129.385 9.44C128.559 9.38667 128.065 9.38667 127.905 9.44C127.852 9.46667 127.599 9.50667 127.145 9.56L126.585 9.68L126.625 10.64C126.652 11.3067 126.679 11.6533 126.705 11.68C126.759 11.7067 127.159 11.6667 127.905 11.56C128.652 11.4267 129.399 11.3733 130.145 11.4C130.892 11.4267 131.385 11.52 131.625 11.68C131.945 11.8933 132.145 12.1733 132.225 12.52C132.332 12.8667 132.399 13.5867 132.425 14.68C132.479 16.28 132.412 18.4267 132.225 21.12C132.039 23.7867 131.839 25.5867 131.625 26.52C131.519 27.0533 131.372 27.4533 131.185 27.72C130.892 28.1733 130.452 28.4667 129.865 28.6C129.305 28.7067 128.692 28.64 128.025 28.4L127.345 28.16V29V29.84L129.145 29.92C130.265 29.9733 131.972 30 134.265 30H137.625L137.545 29.72C137.492 29.5333 137.465 29.2533 137.465 28.88V28.28L136.585 28.2C135.839 28.12 135.265 27.9733 134.865 27.76C134.492 27.52 134.172 27.1467 133.905 26.64C133.719 26.2667 133.532 25.9067 133.345 25.56C132.999 24.8667 132.825 23.88 132.825 22.6C132.825 21.2667 133.012 19.96 133.385 18.68C133.919 16.9467 134.372 15.7333 134.745 15.04C135.119 14.3467 135.652 13.7467 136.345 13.24C137.039 12.7333 137.652 12.4667 138.185 12.44C138.719 12.3867 139.292 12.5467 139.905 12.92C140.252 13.1333 140.625 13.4533 141.025 13.88C141.452 14.3067 141.745 14.68 141.905 15C142.519 16.2 142.959 17.9733 143.225 20.32C143.332 21.2 143.399 22.52 143.425 24.28C143.479 26.0133 143.465 26.9467 143.385 27.08C143.252 27.32 142.999 27.5467 142.625 27.76C142.252 27.9733 141.905 28.08 141.585 28.08C141.505 28.08 141.332 28.0933 141.065 28.12C140.799 28.12 140.612 28.12 140.505 28.12H139.945V28.68C139.945 29.0267 139.972 29.3333 140.025 29.6L140.105 29.96L144.945 30.08C148.145 30.1067 149.759 30.1067 149.785 30.08C149.812 30.08 149.799 29.7467 149.745 29.08C149.719 28.5467 149.652 28.24 149.545 28.16C149.465 28.08 149.132 27.9867 148.545 27.88C148.119 27.8267 147.812 27.7333 147.625 27.6C147.465 27.4667 147.279 27.2133 147.065 26.84C146.932 26.5733 146.852 26.2533 146.825 25.88C146.799 25.5067 146.785 24.44 146.785 22.68C146.785 20.28 146.852 18.72 146.985 18C147.759 14.4267 149.572 12.6267 152.425 12.6C153.172 12.6 153.745 12.7067 154.145 12.92C154.625 13.16 155.012 13.48 155.305 13.88C155.599 14.2533 155.852 14.8 156.065 15.52C156.279 16.2133 156.412 17.0133 156.465 17.92C156.545 18.8267 156.572 20.4533 156.545 22.8C156.519 24.8533 156.479 26.1333 156.425 26.64C156.399 27.1467 156.332 27.4933 156.225 27.68C156.039 28 155.812 28.2 155.545 28.28C155.279 28.36 154.692 28.3867 153.785 28.36L152.185 28.32L152.265 29.16C152.292 29.72 152.332 30.0267 152.385 30.08C152.412 30.1333 154.172 30.1867 157.665 30.24L162.945 30.28L162.985 29.8C163.039 29.5867 163.065 29.36 163.065 29.12C163.092 28.8533 163.092 28.64 163.065 28.48C163.039 28.32 163.012 28.24 162.985 28.24C162.745 28.24 162.319 28.1867 161.705 28.08C161.119 27.9733 160.732 27.8933 160.545 27.84C160.305 27.7333 160.052 27.56 159.785 27.32C159.519 27.0533 159.359 26.6533 159.305 26.12C159.279 25.5867 159.305 24.44 159.385 22.68C159.519 20.3067 159.319 18.0667 158.785 15.96C158.252 13.8533 157.492 12.32 156.505 11.36C155.945 10.8267 155.212 10.4133 154.305 10.12C153.399 9.82667 152.532 9.72 151.705 9.8C150.745 9.90667 149.665 10.2933 148.465 10.96C147.532 11.52 146.772 12.2133 146.185 13.04C145.919 13.44 145.692 13.7067 145.505 13.84C145.345 13.9467 145.105 14 144.785 14C144.519 14 144.265 13.9067 144.025 13.72C143.812 13.5333 143.479 13.12 143.025 12.48C142.439 11.7067 141.492 11.1067 140.185 10.68C138.879 10.2533 137.705 10.1467 136.665 10.36C136.212 10.4667 135.879 10.6133 135.665 10.8C135.452 10.9867 135.279 11.28 135.145 11.68C135.012 12.1333 134.839 12.4533 134.625 12.64C134.439 12.8 134.185 12.8933 133.865 12.92C133.519 12.9467 133.239 12.8533 133.025 12.64C132.839 12.4267 132.532 11.92 132.105 11.12C131.625 10.2667 131.252 9.78667 130.985 9.68ZM179.201 12.84C179.947 12.6 180.654 12.6267 181.321 12.92C181.987 13.1867 182.507 13.68 182.881 14.4C183.441 14.9867 183.854 15.7333 184.121 16.64C184.601 18.1067 184.694 19.6933 184.401 21.4C184.081 23.2133 183.401 24.6533 182.361 25.72C181.081 27.0533 179.507 27.5067 177.641 27.08C176.387 26.7867 175.494 25.8267 174.961 24.2C174.534 22.9467 174.387 21.5067 174.521 19.88C174.681 18.2267 175.081 16.7867 175.721 15.56C176.574 14.04 177.681 13.1333 179.041 12.84C179.094 12.84 179.147 12.84 179.201 12.84ZM184.881 11.88C183.707 10.6533 182.334 9.89333 180.761 9.6C178.627 9.2 176.681 9.72 174.921 11.16C173.054 12.68 171.774 14.96 171.081 18C171.054 18.2667 171.041 18.52 171.041 18.76C170.827 21.8533 171.281 24.4 172.401 26.4C173.574 28.5333 175.401 29.6 177.881 29.6C179.134 29.6 180.067 29.5467 180.681 29.44C181.587 29.3067 182.387 29.0267 183.081 28.6C184.681 27.64 185.867 26.32 186.641 24.64C186.694 24.5067 186.747 24.3733 186.801 24.24C187.014 23.68 187.147 23.16 187.201 22.68C187.387 21.4 187.361 19.9867 187.121 18.44C186.907 16.8933 186.507 15.4133 185.921 14C185.601 13.2533 185.254 12.5467 184.881 11.88ZM172.281 0.879998C172.734 0.773331 173.267 0.679998 173.881 0.599999C175.721 0.333331 178.107 0.199997 181.041 0.199997H181.081C183.107 0.0666642 184.814 0.0133316 186.201 0.0399995C187.267 0.0666658 188.147 0.146666 188.841 0.279999C189.294 0.359999 189.667 0.453332 189.961 0.559998C190.174 0.586665 190.374 0.613333 190.561 0.639999C190.907 0.693332 191.187 0.746665 191.401 0.799999C191.827 0.906666 192.147 1.08 192.361 1.32C192.521 1.53333 192.641 1.76 192.721 2C192.747 2.10666 192.761 2.22667 192.761 2.36V2.44V2.48V2.52L192.721 2.56C192.721 4.77333 192.641 7.81333 192.481 11.68C192.454 11.8933 192.427 12.2267 192.401 12.68C192.267 15.8 192.174 18.1333 192.121 19.68C192.121 20.56 192.147 21.8933 192.201 23.68C192.201 24.1067 192.201 24.44 192.201 24.68C192.281 27.16 192.227 29.1467 192.041 30.64C192.041 30.6667 192.027 30.7333 192.001 30.84V30.88C192.001 31.04 191.987 31.1867 191.961 31.32C191.907 31.5333 191.854 31.7333 191.801 31.92C191.667 32.2667 191.481 32.5333 191.241 32.72C191.027 32.88 190.707 32.9733 190.281 33C190.094 33.0267 189.827 33.04 189.481 33.04C188.894 33.04 188.094 33.0267 187.081 33C185.161 32.9467 182.801 32.84 180.001 32.68C177.307 32.52 174.974 32.36 173.001 32.2C171.961 32.12 171.161 32.0533 170.601 32C170.281 31.9467 170.027 31.9067 169.841 31.88C169.441 31.8267 169.147 31.7067 168.961 31.52C168.854 31.44 168.761 31.3467 168.681 31.24C168.441 31.08 168.254 30.8533 168.121 30.56C167.934 30.2133 167.774 28.9333 167.641 26.72C167.534 25.1467 167.427 22.9333 167.321 20.08C167.294 19.2267 167.254 18.16 167.201 16.88C167.201 16.6667 167.201 16.4133 167.201 16.12C167.174 15.7467 167.161 15.5067 167.161 15.4C167.134 14.8133 167.121 14.3467 167.121 14C167.041 12 166.987 10.7867 166.961 10.36C166.907 9.69333 166.867 8.72 166.841 7.44C166.814 7.30667 166.801 7.2 166.801 7.12C166.801 6.26667 166.787 5.6 166.761 5.12C166.761 5.09333 166.761 5.04 166.761 4.96C166.734 4.88 166.721 4.78667 166.721 4.68C166.694 4.57333 166.681 4.49333 166.681 4.44C166.654 4.17333 166.641 3.92 166.641 3.68C166.614 3.2 166.614 2.81333 166.641 2.52C166.667 2.28 166.721 2.06667 166.801 1.88C166.881 1.69333 166.974 1.53333 167.081 1.4C167.321 1.18666 167.601 1.05333 167.921 0.999999C169.174 0.866666 170.627 0.826666 172.281 0.879998ZM195.316 1.36C195.582 1.30666 196.702 1.30666 198.676 1.36C200.676 1.38667 202.729 1.45333 204.836 1.56C207.076 1.69333 209.356 1.76 211.676 1.76C216.956 1.76 220.369 2.05333 221.916 2.64C222.422 2.82667 222.782 3.10666 222.996 3.48C223.236 3.85333 223.409 4.44 223.516 5.24C223.622 6.04 223.716 7.36 223.796 9.2C223.876 11.52 223.982 13.2 224.116 14.24C224.489 17.6267 224.702 20.6133 224.756 23.2C224.782 25.1467 224.742 26.5733 224.636 27.48C224.556 28.36 224.369 29.1067 224.076 29.72C223.782 30.36 223.396 30.76 222.916 30.92C222.462 31.1067 221.716 31.12 220.676 30.96C219.822 30.8267 218.836 30.7867 217.716 30.84C216.542 30.8933 214.382 30.8667 211.236 30.76C207.982 30.6533 205.622 30.6533 204.156 30.76C202.476 30.84 200.689 30.9067 198.796 30.96C198.742 30.96 198.662 30.96 198.556 30.96C197.569 31.04 196.809 31.04 196.276 30.96C195.769 30.9067 195.449 30.8267 195.316 30.72C195.156 30.6133 194.969 30.36 194.756 29.96C194.729 29.9067 194.702 29.8667 194.676 29.84C194.356 29.2533 194.169 28.64 194.116 28C194.036 27.36 194.062 26.2133 194.196 24.56C194.302 23.2 194.262 21.1733 194.076 18.48C193.702 13.2533 193.529 9.46667 193.556 7.12C193.582 4.74667 193.822 3.12 194.276 2.24C194.516 1.78667 194.862 1.49333 195.316 1.36ZM202.596 3.96C200.196 3.82667 198.609 3.76 197.836 3.76H196.556L196.676 4.16C196.676 4.21333 196.689 4.33333 196.716 4.52C196.769 4.70666 196.809 4.84 196.836 4.92C196.862 5.05333 196.902 5.14667 196.956 5.2C197.036 5.25333 197.169 5.28 197.356 5.28C197.676 5.28 198.102 5.32 198.636 5.4C199.702 5.58667 200.329 6.16 200.516 7.12C200.862 8.74667 201.062 12.1467 201.116 17.32C201.169 20.52 201.129 22.6667 200.996 23.76C200.889 24.8267 200.622 25.5867 200.196 26.04C199.796 26.44 199.089 26.64 198.076 26.64H197.196L197.116 27.16C197.062 27.5067 197.009 27.8 196.956 28.04C196.929 28.2 196.942 28.3067 196.996 28.36C197.049 28.3867 197.262 28.4 197.636 28.4C198.169 28.4 199.049 28.3067 200.276 28.12C201.582 27.96 203.089 27.92 204.796 28C206.556 28.0533 208.369 28.04 210.236 27.96C211.569 27.9067 213.209 27.9067 215.156 27.96C217.102 28.0133 218.382 28.1067 218.996 28.24L219.436 28.28L219.356 25.44C219.302 23.6 219.249 22.0133 219.196 20.68L219.116 18.8L218.436 18.92C217.929 19 217.476 19.0933 217.076 19.2L216.436 19.4L216.756 20.36C216.969 21 217.089 21.76 217.116 22.64C217.169 23.4933 217.129 24.1867 216.996 24.72C216.836 25.2533 216.689 25.6133 216.556 25.8C216.449 25.96 216.249 26.1067 215.956 26.24C215.369 26.5333 214.182 26.56 212.396 26.32C211.542 26.2133 210.502 26.1067 209.276 26C207.782 25.8933 206.742 25.7067 206.156 25.44C205.569 25.1733 205.129 24.72 204.836 24.08C204.676 23.76 204.596 22.5067 204.596 20.32C204.569 18.08 204.529 15.24 204.476 11.8L204.356 6.56L204.756 6.08C205.102 5.70666 205.556 5.48 206.116 5.4C206.676 5.29333 207.556 5.29333 208.756 5.4C209.876 5.48 210.462 5.49333 210.516 5.44V5.28C210.516 5.14667 210.502 5 210.476 4.84L210.396 4.28L208.236 4.2C207.222 4.17333 205.342 4.09333 202.596 3.96ZM245.507 1.16C247.347 1.08 250.107 1.04 253.787 1.04C257.467 1.04 259.707 1.06666 260.507 1.12C262.32 1.30666 263.574 1.52 264.267 1.76C264.587 1.89333 264.894 2.09333 265.187 2.36C265.48 2.62666 265.667 2.86666 265.747 3.08C265.8 3.26667 265.867 4.04 265.947 5.4C266.054 7.4 265.947 10.2133 265.627 13.84C265.307 17.3333 265.227 20.2 265.387 22.44C265.6 25.64 265.68 27.8 265.627 28.92C265.6 30.0133 265.427 30.72 265.107 31.04C264.787 31.3333 264.254 31.5067 263.507 31.56C262.76 31.64 260.907 31.68 257.947 31.68C243.094 31.6267 234.427 31.5867 231.947 31.56C229.494 31.5333 228.08 31.44 227.707 31.28C227.28 31.12 226.987 30.96 226.827 30.8C226.64 30.64 226.494 30.3867 226.387 30.04C226.227 29.5067 226.107 28.6533 226.027 27.48C225.947 26.3067 225.867 24.0267 225.787 20.64C225.707 16.1333 225.72 12.96 225.827 11.12C225.934 9.25333 226.014 7.50666 226.067 5.88C226.12 4.54666 226.2 3.68 226.307 3.28C226.387 2.85333 226.587 2.52 226.907 2.28C227.307 2.01333 227.827 1.84 228.467 1.76C229.107 1.68 230.36 1.64 232.227 1.64C234.494 1.64 236.88 1.57333 239.387 1.44C240.667 1.36 242.707 1.26667 245.507 1.16ZM260.427 3.64C259.147 3.53333 257.934 3.46666 256.787 3.44C255.64 3.41333 255.04 3.45333 254.987 3.56C254.934 3.77333 254.854 4.06666 254.747 4.44C254.4 5.74667 253.507 8.10667 252.067 11.52C250.52 15.1467 249.52 17.7467 249.067 19.32C248.8 20.28 248.574 20.88 248.387 21.12C248.2 21.3333 247.84 21.48 247.307 21.56C246.907 21.6133 246.587 21.5733 246.347 21.44C246.107 21.3067 245.934 21.1333 245.827 20.92C245.747 20.68 245.574 20.0667 245.307 19.08C245.094 18.1733 244.814 17.32 244.467 16.52C244.014 15.4 243.374 13.48 242.547 10.76C241.96 8.78667 241.534 7.45333 241.267 6.76C241.027 6.04 240.734 5.37333 240.387 4.76L239.907 3.84L239.187 3.96C238.734 4.01333 237.067 4.05333 234.187 4.08C233.494 4.08 232.774 4.09333 232.027 4.12C231.307 4.12 230.747 4.12 230.347 4.12H229.747C229.614 4.14667 229.547 4.38667 229.547 4.84V5.52L230.787 5.48C231.614 5.48 232.174 5.57333 232.467 5.76C232.76 5.92 232.96 6.12 233.067 6.36C233.227 6.70667 233.414 8.69333 233.627 12.32C233.867 15.92 233.987 18.9867 233.987 21.52C233.987 24.16 233.92 25.6933 233.787 26.12C233.574 26.84 233.174 27.3467 232.587 27.64C232.4 27.72 231.987 27.8267 231.347 27.96C230.707 28.0667 230.227 28.12 229.907 28.12C229.667 28.12 229.52 28.1467 229.467 28.2C229.44 28.2267 229.454 28.3333 229.507 28.52C229.534 28.7867 229.574 28.9467 229.627 29C229.68 29.0533 231.187 29.08 234.147 29.08C237.134 29.0533 239.094 29.0133 240.027 28.96L241.547 28.88L241.267 28.28L240.987 27.72L240.067 27.68C239.534 27.68 239.014 27.6 238.507 27.44C238.027 27.28 237.68 27.08 237.467 26.84C237.174 26.52 236.987 26.0933 236.907 25.56C236.854 25 236.894 24.1733 237.027 23.08C237.16 21.96 237.2 20.4933 237.147 18.68C237.067 15.9867 236.787 13.5733 236.307 11.44C236.067 10.4 235.947 9.74667 235.947 9.48C235.947 9.21333 236.067 8.97333 236.307 8.76C236.574 8.52 236.854 8.4 237.147 8.4C237.494 8.4 237.774 8.53333 237.987 8.8C238.2 9.06667 238.414 9.53333 238.627 10.2C239.134 11.9067 240.347 15.4267 242.267 20.76C243.707 24.84 244.52 27.16 244.707 27.72L245.147 29H246.387C247.187 29 247.694 29.0267 247.907 29.08C248.04 29.1333 248.12 29.1467 248.147 29.12C248.174 29.0667 248.187 28.9467 248.187 28.76C248.214 27.48 248.88 25.4133 250.187 22.56C250.934 20.96 251.494 19.3333 251.867 17.68C252.134 16.4533 252.494 15.1467 252.947 13.76C253.347 12.5333 253.654 11.7733 253.867 11.48C254.08 11.16 254.414 11 254.867 11C255.267 11 255.574 11.12 255.787 11.36C256 11.6 256.16 11.9467 256.267 12.4C256.4 12.8533 256.52 13.64 256.627 14.76C256.92 17.56 257.107 20.1467 257.187 22.52C257.267 24.8667 257.214 26.24 257.027 26.64C256.84 27.0933 256.467 27.4133 255.907 27.6C255.374 27.7867 254.507 27.9067 253.307 27.96C252.454 28.0133 251.947 28.08 251.787 28.16C251.654 28.2133 251.614 28.4267 251.667 28.8C251.72 29.0133 251.827 29.1467 251.987 29.2C252.174 29.2533 253.96 29.28 257.347 29.28C260.734 29.28 262.547 29.2533 262.787 29.2C262.947 29.1467 263.054 29.0933 263.107 29.04C263.16 28.9867 263.187 28.8933 263.187 28.76C263.187 28.6 263.147 28.5067 263.067 28.48C263.014 28.4267 262.854 28.3867 262.587 28.36C261.387 28.2267 260.654 27.6667 260.387 26.68C260.174 25.9067 260 24.1867 259.867 21.52C259.734 18.8267 259.68 15.84 259.707 12.56C259.734 10.24 259.76 8.82667 259.787 8.32C259.814 7.78666 259.894 7.38667 260.027 7.12C260.214 6.72 260.454 6.41333 260.747 6.2C261.014 6.01333 261.374 5.84 261.827 5.68C262.307 5.49333 262.694 5.4 262.987 5.4H263.467L263.427 4.72L263.387 4.08L262.627 3.92C262.12 3.81333 261.387 3.72 260.427 3.64ZM288.358 1.6C290.704 1.54667 292.118 1.76 292.598 2.24C293.078 2.72 293.678 6.16 294.398 12.56C294.718 15.6267 294.904 17.6 294.958 18.48C295.011 19.36 295.024 20.9333 294.998 23.2C294.918 26.8533 294.744 28.9467 294.478 29.48C294.371 29.7467 294.104 30 293.678 30.24C293.251 30.5067 292.798 30.6933 292.318 30.8C291.518 31.0133 290.611 31.1467 289.598 31.2C288.584 31.28 286.598 31.3467 283.638 31.4C279.691 31.4533 276.904 31.5333 275.278 31.64C273.758 31.7467 272.438 31.7733 271.318 31.72C270.464 31.6933 269.891 31.6267 269.598 31.52C269.331 31.4133 269.078 31.1467 268.838 30.72C268.384 29.9467 268.078 28.44 267.918 26.2C267.784 24.6533 267.891 22.08 268.238 18.48C268.371 16.9067 268.411 15.3333 268.358 13.76C268.331 12.64 268.291 11.84 268.238 11.36C268.184 10.8533 268.051 10.1067 267.838 9.12C267.518 7.65333 267.358 6.50667 267.358 5.68C267.358 5.12 267.371 4.74667 267.398 4.56C267.424 4.37333 267.518 4.13333 267.678 3.84C268.024 3.28 268.464 2.93333 268.998 2.8C269.558 2.66666 270.811 2.61333 272.758 2.64C274.784 2.64 276.878 2.53333 279.038 2.32C283.571 1.89333 286.678 1.65333 288.358 1.6ZM289.358 4.32C289.064 4.24 288.851 4.22667 288.718 4.28C288.584 4.33333 288.478 4.46667 288.398 4.68C288.211 5.26667 287.811 5.58667 287.198 5.64C286.611 5.69333 285.478 5.49333 283.798 5.04C283.158 4.88 282.704 4.8 282.438 4.8C282.198 4.77333 281.771 4.8 281.158 4.88C278.464 5.14667 276.144 6.04 274.198 7.56C273.904 7.77333 273.718 7.94667 273.638 8.08C273.558 8.21333 273.478 8.44 273.398 8.76C273.344 9.13333 273.344 9.66667 273.398 10.36C273.451 11.0533 273.544 11.6267 273.678 12.08C274.184 13.8667 275.571 15.28 277.838 16.32C278.291 16.56 279.531 17.0133 281.558 17.68C283.158 18.2133 284.278 18.64 284.918 18.96C285.584 19.2533 286.131 19.6133 286.558 20.04C286.984 20.4667 287.278 20.8933 287.438 21.32C287.598 21.72 287.651 22.24 287.598 22.88C287.571 23.7867 287.344 24.52 286.918 25.08C286.518 25.64 285.864 26.1333 284.958 26.56C284.078 26.9867 283.278 27.24 282.558 27.32C281.864 27.4 280.998 27.36 279.958 27.2C277.158 26.72 275.358 25.6133 274.558 23.88C274.398 23.56 274.291 23.2533 274.238 22.96C274.211 22.6667 274.198 21.9067 274.198 20.68C274.171 19 274.118 18.0533 274.038 17.84L273.918 17.52L273.318 17.8C272.918 18.0133 272.584 18.24 272.318 18.48C272.131 18.64 272.011 18.8 271.958 18.96C271.904 19.0933 271.851 19.4533 271.798 20.04C271.744 20.6267 271.744 22.1733 271.798 24.68C271.851 27.16 271.904 28.5733 271.958 28.92C272.011 29.08 272.064 29.1867 272.118 29.24C272.171 29.2667 272.318 29.28 272.558 29.28H273.078L272.998 28.24C272.944 27.6533 272.958 27.2267 273.038 26.96C273.144 26.6933 273.358 26.4933 273.678 26.36C274.051 26.2267 274.691 26.36 275.598 26.76C276.691 27.2667 278.184 27.7067 280.078 28.08C282.824 28.6133 285.158 28.6667 287.078 28.24C288.171 28.0267 288.891 27.7333 289.238 27.36C289.531 27.04 289.838 26.2933 290.158 25.12C290.478 23.92 290.638 22.96 290.638 22.24C290.638 21.9467 290.598 21.4667 290.518 20.8L290.358 19.84L289.038 18.48C288.211 17.6533 287.451 17.0667 286.758 16.72C286.091 16.3733 284.598 15.8267 282.278 15.08C280.064 14.3333 278.664 13.8267 278.078 13.56C275.651 12.4133 274.918 10.8 275.878 8.72C276.118 8.21333 276.438 7.74667 276.838 7.32C277.264 6.86666 277.678 6.54667 278.078 6.36C278.504 6.17333 279.064 6.06666 279.758 6.04C280.478 5.98667 281.104 6.04 281.638 6.2C283.718 6.70667 285.384 7.96 286.638 9.96C286.718 10.0667 286.971 10.4533 287.398 11.12C287.798 11.7067 288.064 12.2667 288.198 12.8C288.251 12.9867 288.344 13.0933 288.478 13.12C288.638 13.1467 288.944 13.12 289.398 13.04L289.838 13L289.718 8.68C289.664 6.57333 289.624 5.33333 289.598 4.96C289.571 4.58666 289.491 4.37333 289.358 4.32Z" fill="#4C1A57"/>
</svg>
